<svg width="99" height="137" fill="none" xmlns="http://www.w3.org/2000/svg"><path id="Arrow 2" d="M90.638 136.222c.388.394 1.022.4 1.416.014l6.428-6.293a.996.996 0 0 0 .012-1.412 1.003 1.003 0 0 0-1.416-.014l-5.713 5.594-5.616-5.704a1.003 1.003 0 0 0-1.416-.014.996.996 0 0 0-.012 1.412l6.317 6.417ZM.44 2.729c37.53 6.927 60.079 24.922 73.221 48.7 13.175 23.836 16.955 53.586 16.691 84.084l2.003.02c.265-30.623-3.518-60.784-16.94-85.067C61.959 26.124 38.877 7.792.802.765L.439 2.729Z" fill="#2D2C2C"/></svg>