<svg width="76" height="125" fill="none" xmlns="http://www.w3.org/2000/svg"><path id="Arrow 1" d="M74.868 119.279a1.495 1.495 0 0 0 .851-1.94l-4.927-12.562a1.505 1.505 0 0 0-1.946-.852 1.495 1.495 0 0 0-.85 1.94l4.379 11.167-11.188 4.353a1.495 1.495 0 0 0-.851 1.94 1.505 1.505 0 0 0 1.946.852l12.586-4.898ZM4.145.589c-6.662 32.565-5.54 55.295 5.612 73.429 11.112 18.069 31.998 31.248 63.962 45.237l1.204-2.744c-31.914-13.966-52.018-26.84-62.607-44.058C1.767 55.301.476 33.513 7.088 1.193L4.145.588Z" fill="#2D2C2C"/></svg>