<svg width="1399" height="547" fill="none" xmlns="http://www.w3.org/2000/svg"><path d="m176.5 465.5 498-49.5s100-42 124-45 256-25 407-92S1399 133.5 1399 133.5V547H0l176.5-81.5Z" fill="url('#paint0_linear_161_842')"/><path d="m1409 1-13 35.002s-9.32 21.892-16.29 35.235c-8.49 16.239-14.02 24.803-23.99 39.862-14.29 21.574-39.64 52.398-39.64 52.398s-46.29 51.064-79.42 79.096c-19.42 16.435-30.88 24.836-51.45 39.463-29.83 21.202-47.43 31.626-78.81 49.972-28.86 16.872-45.52 25.38-75.16 40.632-44.646 22.98-114.976 54.75-120.128 57.073-.221.1-.409.189-.626.296L860 455" stroke="url('#paint1_linear_161_842')"/><path d="m1428 89-17.01 22.909s-11.83 14.462-20.35 23.422c-10.36 10.906-16.89 16.776-28.61 27.125-16.79 14.827-45.74 36.568-45.74 36.568s-52.29 36.5-88.74 57.406c-21.37 12.257-33.84 18.695-56.17 29.975-32.37 16.35-51.23 24.719-84.85 39.495-30.91 13.588-48.62 20.678-80.12 33.361-47.961 19.306-123.281 47.063-127.333 48.555-.13.048-.235.088-.365.139L825 429" stroke="url('#paint2_linear_161_842')"/><path d="m1418 133-21.43 27.575s-14.54 16.972-24.65 27.013c-12.3 12.221-19.8 18.421-33.22 29.263-19.23 15.535-51.44 36.58-51.44 36.58s-57.49 33.858-96.45 50.648c-22.84 9.844-35.99 14.517-59.48 22.511-34.05 11.587-53.6 16.599-88.41 25.324-32.02 8.025-50.182 11.581-82.522 18.009-48.789 9.697-124.541 21.098-129.906 21.902-.219.033-.41.065-.628.105L775 402" stroke="url('#paint3_linear_161_842')"/><defs><linearGradient id="paint0_linear_161_842" x1="1291.5" y1="359" x2="1417" y2="133" gradientUnits="userSpaceOnUse"><stop stop-color="#DBE9FF"/><stop offset="1" stop-color="#fff"/></linearGradient><linearGradient id="paint1_linear_161_842" x1="1409" y1="23.5" x2="918" y2="445.5" gradientUnits="userSpaceOnUse"><stop stop-color="#ADADAD"/><stop offset="1" stop-color="#C8D9F3"/></linearGradient><linearGradient id="paint2_linear_161_842" x1="1413.5" y1="111" x2="818.5" y2="409" gradientUnits="userSpaceOnUse"><stop stop-color="#9AA4FF"/><stop offset="1" stop-color="#DBE9FF"/></linearGradient><linearGradient id="paint3_linear_161_842" x1="1436" y1="97.5" x2="788" y2="402" gradientUnits="userSpaceOnUse"><stop stop-color="#ADADAD"/><stop offset="1" stop-color="#DBE9FF"/></linearGradient></defs></svg>