<svg width="561" height="219" fill="none" xmlns="http://www.w3.org/2000/svg"><path d="m71.67 185.877 199.467-19.808s40.053-16.807 49.666-18.007c9.613-1.201 102.537-10.005 163.017-36.816 60.481-26.81 77.503-58.224 77.503-58.224v165.469H.977l70.694-32.614Z" fill="url('#paint0_linear_370_288')"/><path d="m565.329 0-5.208 14.007s-3.732 8.76-6.525 14.1c-3.401 6.498-5.616 9.925-9.61 15.95-5.722 8.634-15.874 20.969-15.874 20.969s-18.542 20.434-31.81 31.651c-7.778 6.577-12.369 9.939-20.61 15.792-11.946 8.484-18.995 12.656-31.565 19.997-11.561 6.752-18.234 10.157-30.103 16.26-17.884 9.196-46.054 21.91-48.117 22.839a6.3 6.3 0 0 0-.25.118l-20.222 9.993" stroke="url('#paint1_linear_370_288')" stroke-width=".4"/><path d="m572.939 35.215-6.815 9.167s-4.739 5.788-8.149 9.373c-4.15 4.364-6.763 6.713-11.458 10.854-6.725 5.934-18.321 14.634-18.321 14.634s-20.943 14.606-35.544 22.972c-8.561 4.904-13.555 7.481-22.498 11.994-12.965 6.543-20.521 9.892-33.984 15.805-12.382 5.438-19.474 8.275-32.093 13.35-19.21 7.726-49.38 18.834-51 19.43l-.146.055-21.514 8.422" stroke="url('#paint2_linear_370_288')" stroke-width=".4"/><path d="m568.933 52.822-8.584 11.035s-5.825 6.791-9.873 10.81c-4.927 4.89-7.93 7.37-13.306 11.71-7.702 6.216-20.604 14.637-20.604 14.637s-23.027 13.549-38.631 20.268c-9.149 3.939-14.416 5.809-23.823 9.008-13.636 4.637-21.469 6.642-35.412 10.134-12.823 3.211-20.098 4.634-33.052 7.206-19.542 3.881-49.884 8.443-52.031 8.765a6.966 6.966 0 0 0-.252.042l-21.975 4.03" stroke="url('#paint3_linear_370_288')" stroke-width=".4"/><defs><linearGradient id="paint0_linear_370_288" x1="518.266" y1="143.26" x2="568.463" y2="52.783" gradientUnits="userSpaceOnUse"><stop stop-color="#DBE9FF"/><stop offset="1" stop-color="#fff"/></linearGradient><linearGradient id="paint1_linear_370_288" x1="565.329" y1="9.004" x2="368.82" y2="178.052" gradientUnits="userSpaceOnUse"><stop stop-color="#ADADAD"/><stop offset="1" stop-color="#C8D9F3"/></linearGradient><linearGradient id="paint2_linear_370_288" x1="567.131" y1="44.018" x2="328.901" y2="163.443" gradientUnits="userSpaceOnUse"><stop stop-color="#9AA4FF"/><stop offset="1" stop-color="#DBE9FF"/></linearGradient><linearGradient id="paint3_linear_370_288" x1="576.143" y1="38.616" x2="316.683" y2="160.65" gradientUnits="userSpaceOnUse"><stop stop-color="#ADADAD"/><stop offset="1" stop-color="#DBE9FF"/></linearGradient></defs></svg>