<svg width="24" height="24" fill="none" xmlns="http://www.w3.org/2000/svg"><g id="devicon:google" clip-path="url('#clip0_161_748')"><path id="Vector" d="M8.36.79a11.865 11.865 0 0 0 .812 22.668c1.988.513 4.07.535 6.068.066A10.712 10.712 0 0 0 20.096 21a10.77 10.77 0 0 0 3-4.924c.58-2.048.684-4.202.302-6.296h-11.16v4.63h6.463a5.572 5.572 0 0 1-2.374 3.66 6.78 6.78 0 0 1-2.611 1.03 7.744 7.744 0 0 1-2.832 0 6.969 6.969 0 0 1-2.634-1.149A7.369 7.369 0 0 1 5.53 14.31a7.183 7.183 0 0 1 0-4.618 7.36 7.36 0 0 1 1.721-2.796 6.97 6.97 0 0 1 7.022-1.834 6.427 6.427 0 0 1 2.558 1.5c.729-.725 1.456-1.451 2.182-2.18.375-.392.784-.765 1.153-1.166A11.478 11.478 0 0 0 16.35.86 12 12 0 0 0 8.36.789Z" fill="#fff"/><path id="Vector_2" d="M8.36.79a12 12 0 0 1 7.99.069 11.479 11.479 0 0 1 3.816 2.366c-.375.401-.771.776-1.154 1.166-.727.726-1.454 1.45-2.18 2.171a6.427 6.427 0 0 0-2.558-1.5A6.97 6.97 0 0 0 7.251 6.89a7.36 7.36 0 0 0-1.722 2.795L1.642 6.675A11.912 11.912 0 0 1 8.361.789Z" fill="#E33629"/><path id="Vector_3" d="M.611 9.656a11.8 11.8 0 0 1 1.032-2.981l3.886 3.017a7.183 7.183 0 0 0 0 4.618c-1.295 1-2.59 2.005-3.886 3.015A11.875 11.875 0 0 1 .61 9.656Z" fill="#F8BD00"/><path id="Vector_4" d="M12.238 9.778h11.16a13.937 13.937 0 0 1-.302 6.296 10.77 10.77 0 0 1-3 4.924c-1.254-.979-2.514-1.95-3.768-2.929a5.573 5.573 0 0 0 2.373-3.663h-6.463c-.002-1.542 0-3.085 0-4.628Z" fill="#587DBD"/><path id="Vector_5" d="M1.64 17.325c1.297-1 2.592-2.005 3.887-3.015A7.369 7.369 0 0 0 8.25 17.95c.791.56 1.69.948 2.64 1.14a7.744 7.744 0 0 0 2.831 0 6.779 6.779 0 0 0 2.612-1.031c1.255.979 2.515 1.95 3.769 2.929a10.712 10.712 0 0 1-4.856 2.525c-1.998.47-4.08.448-6.068-.065a11.813 11.813 0 0 1-4.312-2.173 11.95 11.95 0 0 1-3.225-3.951Z" fill="#319F43"/></g><defs><clipPath id="clip0_161_748"><path fill="#fff" d="M0 0h24v24H0z"/></clipPath></defs></svg>