<svg width="741" height="496" fill="none" xmlns="http://www.w3.org/2000/svg"><path d="M-174.22 837.916C-116.156 710.6-4.429 662.463 52.898 664.635c57.328 2.172 153.651-60.627 179.67-137.08 26.018-76.452 118.067-131.588 171.672-130.978 53.604.61 144.22-59.721 153.545-117.148 9.325-57.427 97.973-122.546 155.677-118.775 57.704 3.771 139.955-56.467 160.476-122.436C894.46-27.752 956.975-68.53 1014.69-69.168c57.71-.638 117.39-28.557 143.95-109.826 26.56-81.269 105.93-111.01 151.94-115.928 46.02-4.918 111.11-8.043 166.34-126.91M-41.22 963.916C16.844 836.6 128.57 788.463 185.898 790.635c57.328 2.172 153.651-60.627 179.67-137.08 26.018-76.452 118.067-131.588 171.672-130.978 53.604.61 144.22-59.721 153.545-117.148 9.325-57.427 97.973-122.546 155.677-118.775 57.704 3.771 139.955-56.467 160.478-122.436 20.52-65.97 83.03-106.748 140.75-107.386 57.71-.638 117.39-28.557 143.95-109.826 26.56-81.269 105.93-111.01 151.94-115.928 46.02-4.918 111.11-8.043 166.34-126.91" stroke="#fff"/><path d="M-.22 1011.92C57.844 884.6 169.57 836.463 226.898 838.635c57.328 2.172 153.651-60.627 179.67-137.08 26.018-76.452 118.067-131.588 171.672-130.978 53.604.61 144.22-59.721 153.545-117.148 9.325-57.427 97.973-122.546 155.677-118.775 57.704 3.771 139.958-56.467 160.478-122.436 20.52-65.969 83.03-106.748 140.75-107.386 57.71-.638 117.39-28.557 143.95-109.826 26.56-81.27 105.93-111.01 151.94-115.928 46.02-4.918 111.11-8.043 166.34-126.91M-219.22 797.916C-161.156 670.6-49.429 622.463 7.898 624.635c57.328 2.172 153.651-60.627 179.67-137.08 26.018-76.452 118.067-131.588 171.672-130.978 53.604.61 144.22-59.721 153.545-117.148 9.325-57.427 97.973-122.546 155.677-118.775 57.704 3.771 139.955-56.467 160.476-122.436 20.522-65.97 83.037-106.748 140.75-107.386 57.712-.638 117.392-28.557 143.952-109.826 26.56-81.269 105.93-111.01 151.94-115.928 46.02-4.918 111.11-8.043 166.34-126.91M-86.22 923.916C-28.156 796.6 83.57 748.463 140.898 750.635c57.328 2.172 153.651-60.627 179.67-137.08 26.018-76.452 118.067-131.588 171.672-130.978 53.604.61 144.22-59.721 153.545-117.148 9.325-57.427 97.973-122.546 155.677-118.775 57.704 3.771 139.955-56.467 160.476-122.436C982.46 58.248 1044.97 17.47 1102.69 16.832c57.71-.638 117.39-28.557 143.95-109.826 26.56-81.269 105.93-111.01 151.94-115.928 46.02-4.918 111.11-8.043 166.34-126.91" stroke="#fff"/><path d="M-263.22 747.916C-205.156 620.6-93.429 572.463-36.102 574.635c57.328 2.172 153.651-60.627 179.67-137.08 26.018-76.452 118.067-131.588 171.672-130.978 53.604.61 144.22-59.721 153.545-117.148 9.325-57.427 97.973-122.546 155.677-118.775 57.704 3.771 139.955-56.467 160.476-122.436 20.522-65.969 83.037-106.748 140.75-107.386 57.714-.638 117.392-28.557 143.952-109.826 26.56-81.269 105.93-111.01 151.94-115.928 46.02-4.918 111.11-8.043 166.34-126.91M-130.22 873.916C-72.156 746.6 39.571 698.463 96.898 700.635c57.328 2.172 153.651-60.627 179.67-137.08 26.018-76.452 118.067-131.588 171.672-130.978 53.604.61 144.22-59.721 153.545-117.148 9.325-57.427 97.973-122.546 155.677-118.775 57.704 3.771 139.955-56.467 160.476-122.436C938.46 8.248 1000.97-32.53 1058.69-33.168c57.71-.638 117.39-28.557 143.95-109.826 26.56-81.269 105.93-111.01 151.94-115.928 46.02-4.918 111.11-8.043 166.34-126.91" stroke="#fff"/></svg>