<svg width="741" height="496" fill="none" xmlns="http://www.w3.org/2000/svg"><mask id="mask0_161_848" style="mask-type:alpha" maskUnits="userSpaceOnUse" x="0" y="0" width="741" height="496"><path transform="matrix(-1 0 0 1 741 0)" fill="#D9D9D9" d="M0 0h741v496H0z"/></mask><g mask="url('#mask0_161_848')" stroke="#fff"><path d="M915.22 837.916C857.156 710.6 745.429 662.463 688.102 664.635c-57.328 2.172-153.651-60.627-179.67-137.08-26.018-76.452-118.067-131.588-171.672-130.978-53.604.61-144.219-59.721-153.545-117.148-9.325-57.427-97.973-122.546-155.677-118.775-57.704 3.771-139.955-56.467-160.476-122.436-20.521-65.97-83.036-106.748-140.75-107.386-57.714-.638-117.387-28.557-143.949-109.826-26.561-81.269-105.932-111.01-151.945-115.928-46.013-4.918-111.108-8.043-166.341-126.91M782.22 963.916C724.156 836.6 612.429 788.463 555.102 790.635c-57.328 2.172-153.651-60.627-179.67-137.08-26.018-76.452-118.067-131.588-171.672-130.978-53.604.61-144.22-59.72-153.545-117.148-9.325-57.427-97.973-122.546-155.677-118.775-57.704 3.772-139.955-56.467-160.476-122.436-20.521-65.97-83.036-106.747-140.75-107.386-57.714-.638-117.387-28.557-143.949-109.826-26.561-81.269-105.932-111.009-151.945-115.928-46.013-4.918-111.108-8.043-166.341-126.91"/><path d="M741.22 1011.92C683.156 884.6 571.429 836.463 514.102 838.635c-57.328 2.172-153.651-60.627-179.67-137.08-26.018-76.452-118.067-131.588-171.672-130.978-53.604.61-144.22-59.72-153.545-117.148-9.325-57.427-97.973-122.546-155.677-118.775-57.704 3.772-139.955-56.467-160.476-122.436-20.521-65.969-83.036-106.747-140.75-107.386-57.714-.638-117.387-28.557-143.949-109.826-26.561-81.27-105.932-111.009-151.945-115.928-46.013-4.918-111.108-8.043-166.341-126.91M960.22 797.916C902.156 670.6 790.429 622.463 733.102 624.635c-57.328 2.172-153.651-60.627-179.67-137.08-26.018-76.452-118.067-131.588-171.672-130.978-53.604.61-144.219-59.721-153.545-117.148-9.325-57.427-97.973-122.546-155.677-118.775C14.834 124.425-67.417 64.187-87.938-1.782c-20.521-65.97-83.036-106.748-140.75-107.386-57.714-.638-117.387-28.557-143.949-109.826-26.561-81.269-105.932-111.01-151.945-115.928-46.013-4.918-111.108-8.043-166.341-126.91M827.22 923.916C769.156 796.6 657.429 748.463 600.102 750.635c-57.328 2.172-153.651-60.627-179.67-137.08-26.018-76.452-118.067-131.588-171.672-130.978-53.604.61-144.219-59.721-153.545-117.148C85.89 308.002-2.758 242.883-60.462 246.654c-57.704 3.771-139.955-56.467-160.476-122.436-20.521-65.97-83.036-106.748-140.75-107.386-57.714-.638-117.387-28.557-143.949-109.826-26.561-81.269-105.932-111.01-151.945-115.928-46.013-4.918-111.108-8.043-166.341-126.91"/><path d="M1004.22 747.916C946.156 620.6 834.429 572.463 777.102 574.635c-57.328 2.172-153.651-60.627-179.67-137.08-26.018-76.452-118.067-131.588-171.672-130.978-53.604.61-144.219-59.721-153.545-117.148-9.325-57.427-97.973-122.546-155.677-118.775C58.834 74.425-23.417 14.187-43.938-51.782c-20.522-65.969-83.036-106.748-140.75-107.386-57.714-.638-117.387-28.557-143.949-109.826-26.561-81.269-105.932-111.01-151.945-115.928-46.013-4.918-111.108-8.043-166.341-126.91M871.22 873.916C813.156 746.6 701.429 698.463 644.102 700.635c-57.328 2.172-153.651-60.627-179.67-137.08-26.018-76.452-118.067-131.588-171.672-130.978-53.604.61-144.219-59.721-153.545-117.148-9.325-57.427-97.973-122.546-155.677-118.775-57.704 3.771-139.955-56.467-160.476-122.436-20.521-65.97-83.036-106.748-140.75-107.386-57.714-.638-117.387-28.557-143.949-109.826-26.561-81.269-105.932-111.01-151.945-115.928-46.013-4.918-111.108-8.043-166.341-126.91"/></g></svg>