<svg width="741" height="496" fill="none" xmlns="http://www.w3.org/2000/svg"><mask id="mask0_365_189" style="mask-type:alpha" maskUnits="userSpaceOnUse" x="0" y="0" width="741" height="496"><path transform="rotate(180 741 496)" fill="#D9D9D9" d="M741 496h741v496H741z"/></mask><g mask="url('#mask0_365_189')" stroke="#ECECEC"><path d="M915.22-341.916C857.156-214.6 745.429-166.463 688.102-168.635c-57.328-2.172-153.651 60.627-179.67 137.08C482.414 44.897 390.365 100.033 336.76 99.423c-53.604-.61-144.22 59.721-153.545 117.148-9.325 57.427-97.973 122.546-155.677 118.775-57.704-3.771-139.955 56.467-160.476 122.436-20.522 65.969-83.037 106.748-140.75 107.386-57.714.638-117.387 28.557-143.949 109.826-26.561 81.269-105.932 111.01-151.945 115.928-46.014 4.918-111.108 8.043-166.341 126.91M782.22-467.916C724.156-340.6 612.429-292.463 555.102-294.635c-57.328-2.172-153.651 60.627-179.67 137.08C349.414-81.103 257.365-25.967 203.76-26.577c-53.604-.61-144.22 59.72-153.545 117.148-9.325 57.427-97.973 122.546-155.677 118.775-57.704-3.771-139.955 56.467-160.476 122.436-20.522 65.969-83.037 106.748-140.75 107.386-57.714.638-117.387 28.557-143.949 109.826-26.561 81.269-105.932 111.01-151.945 115.928-46.014 4.918-111.108 8.043-166.341 126.91"/><path d="M741.22-515.916C683.156-388.6 571.429-340.463 514.102-342.635c-57.328-2.172-153.651 60.627-179.67 137.08C308.414-129.103 216.365-73.967 162.76-74.577 109.156-75.187 18.54-14.857 9.215 42.57-.11 99.998-88.758 165.117-146.462 161.346c-57.704-3.771-139.955 56.467-160.476 122.436-20.522 65.969-83.037 106.748-140.75 107.386-57.714.638-117.387 28.557-143.949 109.826-26.561 81.269-105.932 111.01-151.945 115.928-46.014 4.918-111.108 8.043-166.341 126.91M960.22-301.916C902.156-174.6 790.429-126.463 733.102-128.635c-57.328-2.172-153.651 60.627-179.67 137.08-26.018 76.452-118.067 131.588-171.672 130.978-53.604-.61-144.22 59.721-153.545 117.148-9.325 57.427-97.973 122.546-155.677 118.775-57.704-3.771-139.955 56.467-160.476 122.436-20.522 65.969-83.037 106.748-140.75 107.386-57.714.638-117.387 28.557-143.949 109.826-26.561 81.269-105.932 111.01-151.945 115.928-46.014 4.918-111.108 8.043-166.341 126.91M827.22-427.916C769.156-300.6 657.429-252.463 600.102-254.635c-57.328-2.172-153.651 60.627-179.67 137.08C394.414-41.103 302.365 14.033 248.76 13.423c-53.604-.61-144.22 59.72-153.545 117.148C85.89 187.998-2.758 253.117-60.462 249.346c-57.704-3.771-139.955 56.467-160.476 122.436-20.522 65.969-83.037 106.748-140.75 107.386-57.714.638-117.387 28.557-143.949 109.826-26.561 81.269-105.932 111.01-151.945 115.928-46.014 4.918-111.108 8.043-166.341 126.91"/><path d="M1004.22-251.916C946.156-124.6 834.429-76.463 777.102-78.635c-57.328-2.172-153.651 60.627-179.67 137.08-26.018 76.452-118.067 131.588-171.672 130.978-53.604-.61-144.22 59.721-153.545 117.148-9.325 57.427-97.973 122.546-155.677 118.775-57.704-3.771-139.955 56.467-160.476 122.436-20.522 65.969-83.037 106.748-140.75 107.386-57.714.638-117.387 28.557-143.949 109.826-26.561 81.269-105.932 111.01-151.945 115.928-46.014 4.918-111.108 8.043-166.341 126.908M871.22-377.916C813.156-250.6 701.429-202.463 644.102-204.635c-57.328-2.172-153.651 60.627-179.67 137.08C438.414 8.897 346.365 64.033 292.76 63.423c-53.604-.61-144.22 59.721-153.545 117.148-9.325 57.427-97.973 122.546-155.677 118.775-57.704-3.771-139.955 56.467-160.476 122.436-20.522 65.969-83.037 106.748-140.75 107.386-57.714.638-117.387 28.557-143.949 109.826-26.561 81.269-105.932 111.01-151.945 115.928-46.014 4.918-111.108 8.043-166.341 126.91"/></g></svg>