<svg width="375" height="559" fill="none" xmlns="http://www.w3.org/2000/svg"><mask id="mask0_360_2828" style="mask-type:alpha" maskUnits="userSpaceOnUse" x="0" y="0" width="375" height="559"><path fill="#D9D9D9" d="M0 0h375v559H0z"/></mask><g mask="url('#mask0_360_2828')"><path d="M-169.001 556.294c39.685-87.017 116.047-119.917 155.228-118.433 39.181 1.485 105.015-41.436 122.798-93.689 17.783-52.253 80.695-89.936 117.332-89.519 36.638.416 98.57-40.818 104.944-80.067 6.373-39.25 66.961-83.757 106.4-81.18 39.439 2.578 95.655-38.593 109.68-83.68 14.026-45.088 56.753-72.959 96.198-73.395 39.446-.436 80.231-19.518 98.384-75.063 18.154-55.545 72.402-75.871 103.85-79.233 31.449-3.361 75.939-5.497 113.689-86.739" stroke="url('#paint0_linear_360_2828')"/><path d="M-183.747 541.3C-144.062 454.283-67.7 421.383-28.519 422.867c39.181 1.485 105.015-41.436 122.798-93.689 17.783-52.253 80.695-89.936 117.332-89.519 36.637.416 98.57-40.818 104.943-80.067 6.374-39.25 66.962-83.757 106.401-81.18 39.439 2.578 95.655-38.592 109.68-83.68 14.026-45.088 56.753-72.959 96.198-73.395 39.446-.436 80.231-19.518 98.384-75.063 18.154-55.545 72.402-75.871 103.85-79.233 31.449-3.361 75.939-5.497 113.689-86.739" stroke="url('#paint1_linear_360_2828')"/><path d="M-197.747 523.3C-158.062 436.283-81.7 403.383-42.519 404.867c39.181 1.485 105.015-41.436 122.798-93.689 17.783-52.253 80.695-89.936 117.332-89.519 36.637.416 98.57-40.818 104.943-80.067 6.374-39.25 66.962-83.757 106.401-81.18 39.439 2.578 95.655-38.592 109.68-83.68 14.026-45.088 56.753-72.959 96.198-73.395 39.446-.436 80.231-19.518 98.384-75.063 18.154-55.545 72.402-75.871 103.85-79.233 31.449-3.361 75.939-5.497 113.689-86.739" stroke="url('#paint2_linear_360_2828')"/><path d="M-222.747 506.3c39.685-87.017 116.047-119.917 155.228-118.433 39.181 1.485 105.015-41.436 122.798-93.689 17.783-52.253 80.695-89.936 117.332-89.519 36.637.416 98.57-40.818 104.943-80.067 6.374-39.25 66.962-83.757 106.401-81.18 39.439 2.578 95.655-38.592 109.68-83.68 14.026-45.088 56.753-72.959 96.198-73.395 39.446-.436 80.231-19.518 98.384-75.063 18.154-55.545 72.402-75.871 103.85-79.233 31.449-3.361 75.939-5.497 113.689-86.739" stroke="url('#paint3_linear_360_2828')"/><path d="M-153.747 573.3C-114.062 486.283-37.7 453.383 1.481 454.867c39.181 1.485 105.015-41.436 122.798-93.689 17.783-52.253 80.695-89.936 117.332-89.519 36.637.416 98.57-40.818 104.943-80.067 6.374-39.25 66.962-83.757 106.401-81.179 39.439 2.577 95.655-38.593 109.68-83.681 14.026-45.088 56.753-72.959 96.198-73.395 39.446-.436 80.231-19.518 98.384-75.063 18.154-55.545 72.402-75.871 103.85-79.233 31.449-3.361 75.939-5.497 113.689-86.739" stroke="url('#paint4_linear_360_2828')"/><path d="M-135.747 593.3C-96.062 506.283-19.7 473.383 19.481 474.867c39.181 1.485 105.015-41.436 122.798-93.689 17.783-52.253 80.695-89.936 117.332-89.519 36.637.416 98.57-40.818 104.943-80.067 6.374-39.25 66.962-83.757 106.401-81.179 39.439 2.577 95.655-38.593 109.68-83.681 14.026-45.088 56.753-72.959 96.198-73.395 39.446-.436 80.231-19.518 98.384-75.063 18.154-55.545 72.402-75.871 103.85-79.233 31.449-3.361 75.939-5.497 113.689-86.739" stroke="url('#paint5_linear_360_2828')"/></g><defs><linearGradient id="paint0_linear_360_2828" x1="380" y1="92" x2="-10" y2="492" gradientUnits="userSpaceOnUse"><stop stop-color="#fff" stop-opacity="0"/><stop offset=".562" stop-color="#fff"/><stop offset=".565" stop-color="#E2E2E2"/><stop offset=".734" stop-color="#CACACA" stop-opacity="0"/><stop offset=".862" stop-color="#E2E2E2"/></linearGradient><linearGradient id="paint1_linear_360_2828" x1="365.254" y1="77.006" x2="-24.746" y2="477.006" gradientUnits="userSpaceOnUse"><stop stop-color="#fff" stop-opacity="0"/><stop offset=".606" stop-color="#fff"/><stop offset=".621" stop-color="#E2E2E2"/><stop offset=".734" stop-color="#CACACA" stop-opacity="0"/><stop offset=".862" stop-color="#E2E2E2"/></linearGradient><linearGradient id="paint2_linear_360_2828" x1="351.254" y1="59.006" x2="-38.746" y2="459.006" gradientUnits="userSpaceOnUse"><stop stop-color="#fff" stop-opacity="0"/><stop offset=".636" stop-color="#fff"/><stop offset=".641" stop-color="#E2E2E2"/><stop offset=".734" stop-color="#CACACA" stop-opacity="0"/><stop offset=".862" stop-color="#E2E2E2"/></linearGradient><linearGradient id="paint3_linear_360_2828" x1="326.254" y1="42.006" x2="-63.746" y2="442.006" gradientUnits="userSpaceOnUse"><stop stop-color="#fff" stop-opacity="0"/><stop offset=".653" stop-color="#fff"/><stop offset=".679" stop-color="#E2E2E2"/><stop offset=".734" stop-color="#CACACA" stop-opacity="0"/><stop offset=".862" stop-color="#E2E2E2"/></linearGradient><linearGradient id="paint4_linear_360_2828" x1="395.254" y1="109.006" x2="5.254" y2="509.006" gradientUnits="userSpaceOnUse"><stop stop-color="#fff" stop-opacity="0"/><stop offset=".519" stop-color="#fff"/><stop offset=".522" stop-color="#E2E2E2"/><stop offset=".734" stop-color="#CACACA" stop-opacity="0"/><stop offset=".862" stop-color="#E2E2E2"/></linearGradient><linearGradient id="paint5_linear_360_2828" x1="413.254" y1="129.006" x2="23.254" y2="529.006" gradientUnits="userSpaceOnUse"><stop stop-color="#fff" stop-opacity="0"/><stop offset=".445" stop-color="#fff"/><stop offset=".446" stop-color="#E2E2E2"/><stop offset=".734" stop-color="#CACACA" stop-opacity="0"/><stop offset=".862" stop-color="#E2E2E2"/></linearGradient></defs></svg>