<svg width="727" height="421" fill="none" xmlns="http://www.w3.org/2000/svg"><mask id="mask0_370_397" style="mask-type:alpha" maskUnits="userSpaceOnUse" x="0" y="0" width="727" height="421"><path transform="matrix(-1 0 0 1 727 0)" fill="#D9D9D9" d="M0 0h727v421H0z"/></mask><g mask="url('#mask0_370_397')"><path d="M861.853 334.525c-41.593-74.728-121.626-102.982-162.691-101.707-41.065 1.275-110.064-35.584-128.702-80.458-18.638-44.874-84.574-77.235-122.973-76.877-38.399.358-103.309-35.053-109.989-68.76-6.679-33.707-70.181-71.929-111.516-69.715-41.335 2.214-100.253-33.143-114.953-71.864-14.7-38.72-59.48-62.655-100.823-63.029-41.341-.375-84.087-16.762-103.114-64.463-19.026-47.7-75.882-65.156-108.843-68.043-32.96-2.887-79.589-4.721-119.154-74.49" stroke="url('#paint0_linear_370_397')"/><path d="M766.581 408.481c-41.593-74.728-121.626-102.982-162.691-101.707-41.065 1.275-110.064-35.585-128.702-80.459-18.638-44.873-84.574-77.235-122.973-76.877-38.399.358-103.309-35.053-109.989-68.76-6.679-33.706-70.181-71.928-111.516-69.714C89.375 13.177 30.457-22.18 15.757-60.9c-14.7-38.72-59.48-62.655-100.823-63.03-41.341-.374-84.087-16.761-103.114-64.462-19.026-47.701-75.882-65.157-108.843-68.044-32.96-2.886-79.589-4.721-119.154-74.489" stroke="url('#paint1_linear_370_397')"/><path d="M737.212 436.654c-41.593-74.728-121.626-102.982-162.691-101.707-41.065 1.275-110.064-35.585-128.702-80.458-18.638-44.874-84.575-77.235-122.973-76.878-38.399.358-103.309-35.053-109.989-68.759-6.68-33.707-70.181-71.929-111.516-69.715C60.006 41.35 1.088 5.994-13.612-32.727c-14.7-38.72-59.481-62.655-100.823-63.03-41.342-.374-84.087-16.761-103.114-64.462-19.027-47.7-75.882-65.156-108.843-68.043-32.96-2.887-79.589-4.721-119.154-74.49" stroke="url('#paint2_linear_370_397')"/><path d="M894.088 311.047c-41.594-74.728-121.627-102.982-162.692-101.707-41.065 1.275-110.064-35.584-128.701-80.458-18.638-44.874-84.575-77.235-122.974-76.877-38.398.357-103.308-35.053-109.988-68.76-6.68-33.707-70.181-71.929-111.516-69.715-41.335 2.214-100.254-33.143-114.954-71.864-14.699-38.72-59.48-62.655-100.822-63.029-41.342-.375-84.088-16.762-103.114-64.463-19.027-47.7-75.883-65.156-108.843-68.043-32.961-2.887-79.59-4.721-119.154-74.49" stroke="url('#paint3_linear_370_397')"/><path d="M798.816 385.003c-41.593-74.728-121.626-102.982-162.691-101.707-41.065 1.275-110.064-35.585-128.702-80.459-18.638-44.873-84.575-77.235-122.973-76.877-38.399.358-103.309-35.053-109.989-68.76-6.68-33.707-70.181-71.928-111.516-69.715C121.61-10.3 62.692-45.657 47.992-84.377c-14.7-38.721-59.481-62.655-100.823-63.03-41.342-.374-84.087-16.761-103.114-64.462-19.027-47.701-75.882-65.157-108.843-68.044-32.96-2.886-79.589-4.721-119.154-74.489" stroke="url('#paint4_linear_370_397')"/><path d="M925.606 281.7c-41.593-74.728-121.626-102.982-162.691-101.707-41.065 1.275-110.064-35.585-128.702-80.458-18.638-44.874-84.575-77.236-122.973-76.878-38.399.358-103.309-35.053-109.989-68.76-6.679-33.706-70.181-71.928-111.516-69.714-41.335 2.213-100.253-33.143-114.953-71.864-14.7-38.72-59.481-62.655-100.823-63.03-41.342-.374-84.087-16.761-103.114-64.462-19.026-47.701-75.882-65.157-108.843-68.043-32.96-2.887-79.589-4.721-119.154-74.49" stroke="url('#paint5_linear_370_397')"/><path d="M830.335 355.656c-41.593-74.728-121.627-102.982-162.692-101.707-41.065 1.275-110.064-35.585-128.701-80.459-18.638-44.874-84.575-77.235-122.974-76.877-38.398.358-103.308-35.053-109.988-68.76-6.68-33.707-70.181-71.928-111.516-69.715C153.129-39.648 94.21-75.005 79.51-113.725c-14.7-38.721-59.48-62.655-100.822-63.03-41.342-.375-84.088-16.762-103.114-64.462-19.027-47.701-75.883-65.157-108.843-68.044-32.961-2.887-79.59-4.721-119.154-74.49" stroke="url('#paint6_linear_370_397')"/></g><defs><linearGradient id="paint0_linear_370_397" x1="287.508" y1="-53.471" x2="263.46" y2="-15.004" gradientUnits="userSpaceOnUse"><stop stop-color="#E2E2E2"/><stop offset="1" stop-color="#666" stop-opacity="0"/></linearGradient><linearGradient id="paint1_linear_370_397" x1="192.236" y1="20.484" x2="168.188" y2="58.952" gradientUnits="userSpaceOnUse"><stop stop-color="#E2E2E2"/><stop offset="1" stop-color="#666" stop-opacity="0"/></linearGradient><linearGradient id="paint2_linear_370_397" x1="162.867" y1="48.657" x2="138.819" y2="87.125" gradientUnits="userSpaceOnUse"><stop stop-color="#E2E2E2"/><stop offset="1" stop-color="#666" stop-opacity="0"/></linearGradient><linearGradient id="paint3_linear_370_397" x1="319.743" y1="-76.95" x2="295.694" y2="-38.482" gradientUnits="userSpaceOnUse"><stop stop-color="#E2E2E2"/><stop offset="1" stop-color="#666" stop-opacity="0"/></linearGradient><linearGradient id="paint4_linear_370_397" x1="224.471" y1="-2.994" x2="200.423" y2="35.474" gradientUnits="userSpaceOnUse"><stop stop-color="#E2E2E2"/><stop offset="1" stop-color="#666" stop-opacity="0"/></linearGradient><linearGradient id="paint5_linear_370_397" x1="351.261" y1="-106.297" x2="327.213" y2="-67.829" gradientUnits="userSpaceOnUse"><stop stop-color="#E2E2E2"/><stop offset="1" stop-color="#666" stop-opacity="0"/></linearGradient><linearGradient id="paint6_linear_370_397" x1="255.99" y1="-32.341" x2="231.941" y2="6.127" gradientUnits="userSpaceOnUse"><stop stop-color="#E2E2E2"/><stop offset="1" stop-color="#666" stop-opacity="0"/></linearGradient></defs></svg>