<svg width="375" height="225" fill="none" xmlns="http://www.w3.org/2000/svg"><mask id="mask0_360_2936" style="mask-type:alpha" maskUnits="userSpaceOnUse" x="0" y="0" width="375" height="225"><path fill="#D9D9D9" d="M0 0h375v225H0z"/></mask><g mask="url('#mask0_360_2936')"><path d="M-199.074 201.546C-159.389 126.818-83.027 98.564-43.846 99.839-4.664 101.114 61.17 64.254 78.952 19.38c17.783-44.874 80.695-77.235 117.333-76.877 36.637.358 98.569-35.053 104.943-68.76 6.373-33.707 66.962-71.928 106.4-69.715 39.439 2.214 95.655-33.143 109.681-71.863 14.025-38.721 56.752-62.655 96.197-63.03 39.446-.375 80.231-16.762 98.385-64.462 18.153-47.701 72.401-65.157 103.85-68.044 31.448-2.887 75.938-4.721 113.688-74.49" stroke="url('#paint0_linear_360_2936')"/><path d="M-108.173 275.501C-68.487 200.773 7.874 172.519 47.056 173.794c39.181 1.275 105.015-35.585 122.798-80.458 17.783-44.874 80.695-77.236 117.332-76.878 36.637.358 98.57-35.053 104.943-68.76 6.374-33.706 66.962-71.928 106.401-69.714 39.439 2.213 95.654-33.143 109.68-71.864 14.025-38.72 56.752-62.655 96.198-63.029 39.445-.375 80.23-16.762 98.384-64.463 18.154-47.7 72.401-65.156 103.85-68.043 31.448-2.887 75.938-4.721 113.688-74.49" stroke="url('#paint1_linear_360_2936')"/><path d="M-80.15 303.675c39.685-74.728 116.046-102.982 155.228-101.708 39.181 1.275 105.015-35.584 122.798-80.458 17.783-44.874 80.695-77.235 117.332-76.877 36.637.358 98.57-35.053 104.943-68.76 6.373-33.707 66.962-71.928 106.401-69.715 39.439 2.214 95.654-33.143 109.68-71.863 14.025-38.721 56.752-62.656 96.198-63.03 39.445-.375 80.23-16.762 98.384-64.462 18.154-47.701 72.401-65.157 103.85-68.044 31.448-2.887 75.936-4.721 113.686-74.49" stroke="url('#paint2_linear_360_2936')"/><path d="M-229.83 178.068C-190.145 103.34-113.783 75.086-74.602 76.361-35.42 77.635 30.414 40.776 48.197-4.098c17.782-44.874 80.695-77.235 117.332-76.877 36.637.358 98.569-35.053 104.943-68.76 6.373-33.707 66.962-71.928 106.401-69.715 39.438 2.214 95.654-33.143 109.68-71.863 14.025-38.721 56.752-62.655 96.198-63.03 39.445-.375 80.23-16.762 98.384-64.462 18.154-47.701 72.401-65.157 103.85-68.044 31.448-2.887 75.938-4.721 113.688-74.49" stroke="url('#paint3_linear_360_2936')"/><path d="M-138.929 252.023C-99.243 177.295-22.882 149.041 16.3 150.316c39.181 1.275 105.015-35.585 122.798-80.458C156.881 24.984 219.793-7.378 256.43-7.02c36.637.358 98.57-35.053 104.943-68.76 6.374-33.706 66.962-71.928 106.401-69.714 39.439 2.213 95.655-33.143 109.68-71.864 14.026-38.72 56.753-62.655 96.198-63.03 39.445-.374 80.23-16.761 98.384-64.462 18.154-47.701 72.402-65.156 103.85-68.043 31.449-2.887 75.939-4.721 113.688-74.49" stroke="url('#paint4_linear_360_2936')"/><path d="M-259.903 148.721c39.686-74.729 116.047-102.983 155.229-101.708C-65.493 48.288.341 11.43 18.124-33.445c17.783-44.874 80.695-77.235 117.332-76.877 36.637.358 98.57-35.053 104.943-68.76 6.374-33.707 66.962-71.929 106.401-69.715 39.439 2.214 95.654-33.143 109.68-71.863 14.025-38.721 56.752-62.656 96.198-63.03 39.445-.375 80.23-16.762 98.384-64.463 18.154-47.7 72.401-65.156 103.85-68.043 31.448-2.887 75.939-4.721 113.688-74.49" stroke="url('#paint5_linear_360_2936')"/><path d="M-169.001 222.676c39.685-74.728 116.047-102.982 155.228-101.707 39.181 1.275 105.015-35.585 122.798-80.458 17.783-44.874 80.695-77.236 117.332-76.878 36.638.358 98.57-35.053 104.943-68.76 6.374-33.706 66.962-71.928 106.401-69.714 39.439 2.213 95.655-33.143 109.68-71.864 14.026-38.72 56.753-62.655 96.198-63.03 39.446-.374 80.231-16.761 98.384-64.462 18.154-47.701 72.402-65.157 103.85-68.044 31.449-2.886 75.939-4.721 113.689-74.489" stroke="url('#paint6_linear_360_2936')"/></g><defs><linearGradient id="paint0_linear_360_2936" x1="348.925" y1="-186.451" x2="373.451" y2="-149.019" gradientUnits="userSpaceOnUse"><stop stop-color="#E2E2E2"/><stop offset="1" stop-color="#666" stop-opacity="0"/></linearGradient><linearGradient id="paint1_linear_360_2936" x1="439.826" y1="-112.496" x2="464.352" y2="-75.064" gradientUnits="userSpaceOnUse"><stop stop-color="#E2E2E2"/><stop offset="1" stop-color="#666" stop-opacity="0"/></linearGradient><linearGradient id="paint2_linear_360_2936" x1="467.848" y1="-84.322" x2="492.374" y2="-46.89" gradientUnits="userSpaceOnUse"><stop stop-color="#E2E2E2"/><stop offset="1" stop-color="#666" stop-opacity="0"/></linearGradient><linearGradient id="paint3_linear_360_2936" x1="318.169" y1="-209.929" x2="342.695" y2="-172.497" gradientUnits="userSpaceOnUse"><stop stop-color="#E2E2E2"/><stop offset="1" stop-color="#666" stop-opacity="0"/></linearGradient><linearGradient id="paint4_linear_360_2936" x1="409.07" y1="-135.974" x2="433.596" y2="-98.541" gradientUnits="userSpaceOnUse"><stop stop-color="#E2E2E2"/><stop offset="1" stop-color="#666" stop-opacity="0"/></linearGradient><linearGradient id="paint5_linear_360_2936" x1="288.096" y1="-239.276" x2="312.622" y2="-201.844" gradientUnits="userSpaceOnUse"><stop stop-color="#E2E2E2"/><stop offset="1" stop-color="#666" stop-opacity="0"/></linearGradient><linearGradient id="paint6_linear_360_2936" x1="378.998" y1="-165.321" x2="403.524" y2="-127.889" gradientUnits="userSpaceOnUse"><stop stop-color="#E2E2E2"/><stop offset="1" stop-color="#666" stop-opacity="0"/></linearGradient></defs></svg>