<svg width="147" height="114" fill="none" xmlns="http://www.w3.org/2000/svg"><path d="M70.254 23.004a1.802 1.802 0 0 1-.53-1.301c0-.515.177-.954.53-1.317a1.728 1.728 0 0 1 1.287-.545c.505 0 .933.181 1.287.545.353.363.53.802.53 1.317 0 .504-.177.938-.53 1.301a1.727 1.727 0 0 1-1.287.545c-.504 0-.933-.181-1.287-.545Zm-.227 20.601V27.107l2.876-1.362h.152v16.5l-2.876 1.361h-.152Zm13.213-6.357c0 1.16.313 2.013.938 2.558.636.535 1.408.802 2.316.802.909 0 1.675-.267 2.301-.802.636-.545.954-1.398.954-2.558v-5.146c0-1.16-.318-2.009-.954-2.543-.626-.545-1.392-.818-2.3-.818-.909 0-1.68.273-2.317.818-.625.534-.938 1.382-.938 2.543v5.146Zm-3.027 0v-5.146c0-1.665.625-3.114 1.877-4.345 1.17-1.14 2.638-1.71 4.404-1.71s3.234.57 4.405 1.71c1.251 1.221 1.877 2.67 1.877 4.345v11.352c0 1.665-.626 3.113-1.877 4.344-1.17 1.14-2.639 1.71-4.405 1.71h-4.662v-.15l1.211-2.543h3.451c.909 0 1.675-.273 2.301-.818.636-.535.954-1.382.954-2.543v-1.438c-.767.858-1.852 1.287-3.255 1.287-1.745 0-3.214-.57-4.404-1.71-1.252-1.212-1.877-2.66-1.877-4.345Zm19.418 6.358V32.102c0-1.665.626-3.114 1.877-4.345 1.171-1.14 2.639-1.71 4.405-1.71 1.746 0 3.214.57 4.405 1.71 1.251 1.211 1.877 2.66 1.877 4.345v10.141l-2.876 1.362h-.152V32.102c0-1.16-.318-2.009-.953-2.543-.626-.545-1.393-.818-2.301-.818-.908 0-1.68.273-2.316.818-.626.534-.939 1.382-.939 2.543v10.141l-2.876 1.362h-.15Z" fill="url('#paint0_linear_161_994')"/><path d="M71.269 85.606V71.105h-3.89v-.152l1.225-2.603h2.665V62.9l2.875-1.362h.152v6.812h3.89v.151l-1.226 2.603h-2.664v13.14l-2.876 1.362h-.151Zm22.93-1.363-2.876 1.363h-.151v-1.59c-.808.858-1.893 1.287-3.255 1.287-1.887 0-3.355-.57-4.405-1.71-1.05-1.141-1.574-2.488-1.574-4.042 0-1.615.57-2.987 1.71-4.117 1.1-1.09 2.523-1.635 4.27-1.635 1.24 0 2.325.429 3.253 1.286 0-1.786-.312-2.961-.938-3.526-.605-.545-1.377-.818-2.316-.818H84.24v-.151l1.21-2.543h2.468c1.766 0 3.234.57 4.405 1.71 1.251 1.221 1.877 2.67 1.877 4.345v10.141Zm-9.294-4.692c0 .898.272 1.64.817 2.225.525.565 1.262.848 2.21.848.99 0 1.756-.288 2.301-.863.605-.646.908-1.373.908-2.18 0-.908-.313-1.645-.938-2.21-.626-.565-1.378-.848-2.256-.848-.918 0-1.654.298-2.21.894a3.022 3.022 0 0 0-.832 2.134Zm15.695 6.055V74.102c0-1.666.626-3.114 1.877-4.345 1.17-1.14 2.639-1.71 4.405-1.71 1.604 0 2.992.585 4.162 1.756.222.222.424.484.606.787a4.24 4.24 0 0 1 .605-.772c1.262-1.18 2.649-1.771 4.163-1.771 1.746 0 3.214.57 4.405 1.71 1.251 1.211 1.876 2.66 1.876 4.345v10.141l-2.875 1.363h-.152V74.102c0-1.16-.318-2.009-.953-2.543-.626-.545-1.393-.818-2.301-.818-.908 0-1.68.273-2.316.818-.626.534-.939 1.382-.939 2.543v10.141l-2.876 1.363h-.151V74.102c0-1.16-.318-2.009-.954-2.543-.625-.545-1.392-.818-2.3-.818-.909 0-1.681.273-2.316.818-.626.534-.939 1.382-.939 2.543v10.141l-2.876 1.363h-.151Zm38.793-11.504c0-1.16-.317-2.009-.953-2.543-.626-.545-1.393-.818-2.301-.818-.908 0-1.68.273-2.316.818-.625.534-.938 1.382-.938 2.543v5.146c0 1.16.313 2.013.938 2.558.636.535 1.408.802 2.316.802.908 0 1.675-.267 2.301-.802.636-.545.953-1.397.953-2.558v-5.146Zm3.028 0v5.146c0 1.665-.626 3.113-1.877 4.344-1.171 1.14-2.639 1.71-4.405 1.71-1.332 0-2.417-.428-3.254-1.286v6.433l-2.876 1.362h-.152v-17.71c0-1.665.626-3.113 1.877-4.344 1.171-1.14 2.639-1.71 4.405-1.71 1.746 0 3.214.57 4.405 1.71 1.251 1.211 1.877 2.66 1.877 4.345Z" fill="url('#paint1_linear_161_994')"/><path d="M54.226 69.106c0 6.308-2.072 11.674-6.216 16.096-4.236 4.484-9.957 6.726-17.163 6.726-7.205 0-12.926-2.242-17.163-6.726C9.51 80.78 7.422 75.6 7.422 69.662l8.813-4.175h.464v3.804c0 3.773 1.113 6.943 3.34 9.51 2.752 3.184 6.355 4.777 10.808 4.777 4.422 0 8.025-1.593 10.808-4.778 2.196-2.505 3.294-5.705 3.294-9.602 0-3.68-.897-6.571-2.69-8.674-2.475-2.907-6.278-4.36-11.412-4.36-5.628 0-10.499-1.856-14.612-5.567-3.092-2.783-4.638-6.819-4.638-12.107 0-6.216 1.917-10.885 5.752-14.009 3.649-2.968 8.148-4.453 13.498-4.453s9.85 1.485 13.499 4.453c3.834 3.124 5.752 7.407 5.752 12.85l-8.814 4.174h-.464v-3.71c0-3.526-1.005-6.155-3.015-7.886-1.948-1.701-4.267-2.552-6.958-2.552-3 0-5.412.944-7.236 2.83-1.825 1.886-2.737 4.422-2.737 7.607 0 3.062.696 5.366 2.087 6.912 1.856 2.072 4.485 3.108 7.886 3.108 7.484 0 13.205 1.763 17.163 5.288 4.144 3.68 6.216 9.015 6.216 16.004Z" fill="url('#paint2_linear_161_994')"/><defs><linearGradient id="paint0_linear_161_994" x1="64.943" y1="9.531" x2="154.897" y2="24.468" gradientUnits="userSpaceOnUse"><stop stop-color="#000972"/><stop offset=".429" stop-color="#000EC1"/><stop offset=".741" stop-color="#0010E1"/><stop offset="1" stop-color="#2E3DFA"/></linearGradient><linearGradient id="paint1_linear_161_994" x1="64.943" y1="51.531" x2="154.897" y2="66.469" gradientUnits="userSpaceOnUse"><stop stop-color="#000972"/><stop offset=".429" stop-color="#000EC1"/><stop offset=".741" stop-color="#0010E1"/><stop offset="1" stop-color="#2E3DFA"/></linearGradient><linearGradient id="paint2_linear_161_994" x1="-1.594" y1="-10.688" x2="69.918" y2="-7.701" gradientUnits="userSpaceOnUse"><stop stop-color="#000972"/><stop offset=".429" stop-color="#000EC1"/><stop offset=".741" stop-color="#0010E1"/><stop offset="1" stop-color="#2E3DFA"/></linearGradient></defs></svg>