<svg width="22" height="91" viewBox="0 0 22 91" fill="none" xmlns="http://www.w3.org/2000/svg">
<path id="Arrow 4" d="M2.04585 90.4545C1.21644 90.4626 0.538405 89.7985 0.531421 88.9711L0.417574 75.4883C0.410587 74.6609 1.07729 73.9836 1.9067 73.9755C2.73612 73.9674 3.41415 74.6316 3.42113 75.4589L3.52234 87.4437L15.5366 87.3262C16.366 87.3181 17.044 87.9823 17.051 88.8097C17.058 89.637 16.3913 90.3143 15.5619 90.3224L2.04585 90.4545ZM3.06251 0.907626C27.8137 24.1119 27.3647 65.3596 3.10407 90.0054L0.962336 87.9075C24.1325 64.3696 24.4364 25.0603 1.0039 3.09237L3.06251 0.907626Z" fill="#2D2C2C"/>
</svg>
