<svg width="22" height="91" viewBox="0 0 22 91" fill="none" xmlns="http://www.w3.org/2000/svg">
<path id="Arrow 3" d="M19.6236 90.4545C20.453 90.4626 21.131 89.7985 21.138 88.9711L21.2519 75.4883C21.2588 74.6609 20.5921 73.9836 19.7627 73.9755C18.9333 73.9674 18.2553 74.6316 18.2483 75.4589L18.1471 87.4437L6.13284 87.3262C5.30343 87.3181 4.6254 87.9823 4.61841 88.8097C4.61142 89.637 5.27813 90.3143 6.10754 90.3224L19.6236 90.4545ZM18.6069 0.907626C-6.14427 24.1119 -5.69531 65.3596 18.5654 90.0054L20.7071 87.9075C-2.46302 64.3696 -2.76692 25.0603 20.6655 3.09237L18.6069 0.907626Z" fill="#2D2C2C"/>
</svg>
