<svg width="76" height="125" viewBox="0 0 76 125" fill="none" xmlns="http://www.w3.org/2000/svg">
<path id="Arrow 1" d="M74.8683 119.279C75.6407 118.978 76.0217 118.11 75.7193 117.339L70.7922 104.777C70.4899 104.006 69.6186 103.624 68.8463 103.925C68.0739 104.225 67.6929 105.094 67.9952 105.865L72.3749 117.032L61.1869 121.385C60.4145 121.686 60.0335 122.554 60.3358 123.325C60.6382 124.096 61.5094 124.477 62.2818 124.177L74.8683 119.279ZM4.14493 0.589112C-2.51741 33.1543 -1.3956 55.8843 9.7567 74.0177C20.8694 92.0868 41.7553 105.266 73.7191 119.255L74.9226 116.511C43.0086 102.545 22.905 89.6704 12.3164 72.4534C1.76728 55.3008 0.475788 33.5122 7.08798 1.19214L4.14493 0.589112Z" fill="#2D2C2C"/>
</svg>
