<svg width="99" height="137" viewBox="0 0 99 137" fill="none" xmlns="http://www.w3.org/2000/svg">
<path id="Arrow 2" d="M90.6382 136.222C91.0259 136.616 91.6599 136.622 92.0544 136.236L98.4819 129.943C98.8764 129.557 98.8818 128.925 98.4942 128.531C98.1065 128.137 97.4725 128.131 97.078 128.517L91.3646 134.111L85.7491 128.407C85.3614 128.013 84.7274 128.007 84.3329 128.393C83.9385 128.779 83.933 129.412 84.3207 129.805L90.6382 136.222ZM0.439241 2.72859C37.9696 9.6557 60.5176 27.6511 73.6601 51.4286C86.835 75.2646 90.6152 105.015 90.3511 135.513L92.3538 135.533C92.6189 104.91 88.8359 74.7492 75.4139 50.466C61.9595 26.1244 38.8769 7.79241 0.801614 0.764734L0.439241 2.72859Z" fill="#2D2C2C"/>
</svg>
