<svg width="1399" height="547" viewBox="0 0 1399 547" fill="none" xmlns="http://www.w3.org/2000/svg">
<path d="M176.5 465.5L674.5 416C674.5 416 774.5 374 798.5 371C822.5 368 1054.5 346 1205.5 279C1356.5 212 1399 133.5 1399 133.5V547H0L176.5 465.5Z" fill="url(#paint0_linear_161_842)"/>
<path d="M1409 1L1396 36.0017C1396 36.0017 1386.68 57.8945 1379.71 71.2365C1371.22 87.4756 1365.69 96.0402 1355.72 111.099C1341.43 132.673 1316.08 163.497 1316.08 163.497C1316.08 163.497 1269.79 214.561 1236.66 242.593C1217.24 259.028 1205.78 267.429 1185.21 282.056C1155.38 303.258 1137.78 313.682 1106.4 332.028C1077.54 348.9 1060.88 357.408 1031.24 372.66C986.594 395.64 916.264 427.41 911.112 429.733C910.891 429.833 910.703 429.922 910.486 430.029L860 455" stroke="url(#paint1_linear_161_842)"/>
<path d="M1428 89L1410.99 111.909C1410.99 111.909 1399.16 126.371 1390.64 135.331C1380.28 146.237 1373.75 152.107 1362.03 162.456C1345.24 177.283 1316.29 199.024 1316.29 199.024C1316.29 199.024 1264 235.524 1227.55 256.43C1206.18 268.687 1193.71 275.125 1171.38 286.405C1139.01 302.755 1120.15 311.124 1086.53 325.9C1055.62 339.488 1037.91 346.578 1006.41 359.261C958.449 378.567 883.129 406.324 879.077 407.816C878.947 407.864 878.842 407.904 878.712 407.955L825 429" stroke="url(#paint2_linear_161_842)"/>
<path d="M1418 133L1396.57 160.575C1396.57 160.575 1382.03 177.547 1371.92 187.588C1359.62 199.809 1352.12 206.009 1338.7 216.851C1319.47 232.386 1287.26 253.431 1287.26 253.431C1287.26 253.431 1229.77 287.289 1190.81 304.079C1167.97 313.923 1154.82 318.596 1131.33 326.59C1097.28 338.177 1077.73 343.189 1042.92 351.914C1010.9 359.939 992.738 363.495 960.398 369.923C911.609 379.62 835.857 391.021 830.492 391.825C830.273 391.858 830.082 391.89 829.864 391.93L775 402" stroke="url(#paint3_linear_161_842)"/>
<defs>
<linearGradient id="paint0_linear_161_842" x1="1291.5" y1="359" x2="1417" y2="133" gradientUnits="userSpaceOnUse">
<stop stop-color="#DBE9FF"/>
<stop offset="1" stop-color="white"/>
</linearGradient>
<linearGradient id="paint1_linear_161_842" x1="1409" y1="23.5" x2="918" y2="445.5" gradientUnits="userSpaceOnUse">
<stop stop-color="#ADADAD"/>
<stop offset="1" stop-color="#C8D9F3"/>
</linearGradient>
<linearGradient id="paint2_linear_161_842" x1="1413.5" y1="111" x2="818.5" y2="409" gradientUnits="userSpaceOnUse">
<stop stop-color="#9AA4FF"/>
<stop offset="1" stop-color="#DBE9FF"/>
</linearGradient>
<linearGradient id="paint3_linear_161_842" x1="1436" y1="97.4999" x2="788" y2="402" gradientUnits="userSpaceOnUse">
<stop stop-color="#ADADAD"/>
<stop offset="1" stop-color="#DBE9FF"/>
</linearGradient>
</defs>
</svg>
