<svg width="741" height="496" viewBox="0 0 741 496" fill="none" xmlns="http://www.w3.org/2000/svg">
<path d="M-263.22 747.916C-205.156 620.6 -93.4289 572.463 -36.1016 574.635C21.2257 576.807 117.549 514.008 143.568 437.555C169.586 361.103 261.635 305.967 315.24 306.577C368.844 307.187 459.46 246.856 468.785 189.429C478.11 132.002 566.758 66.8826 624.462 70.654C682.166 74.4254 764.417 14.1873 784.938 -51.782C805.46 -117.751 867.975 -158.53 925.688 -159.168C983.402 -159.806 1043.08 -187.725 1069.64 -268.994C1096.2 -350.263 1175.57 -380.004 1221.58 -384.922C1267.6 -389.84 1332.69 -392.965 1387.92 -511.832" stroke="white"/>
</svg>
