<svg width="561" height="219" viewBox="0 0 561 219" fill="none" xmlns="http://www.w3.org/2000/svg">
<path d="M71.6708 185.877L271.137 166.069C271.137 166.069 311.19 149.262 320.803 148.062C330.416 146.861 423.34 138.057 483.82 111.246C544.301 84.4351 561.323 53.022 561.323 53.022V218.491H0.976562L71.6708 185.877Z" fill="url(#paint0_linear_370_288)"/>
<path d="M565.329 -1.74724e-05L560.121 14.0065C560.121 14.0065 556.389 22.7672 553.596 28.1063C550.195 34.6046 547.98 38.0319 543.986 44.0577C538.264 52.6911 528.112 65.026 528.112 65.026C528.112 65.026 509.57 85.4598 496.302 96.6775C488.524 103.254 483.933 106.616 475.692 112.469C463.746 120.953 456.697 125.125 444.127 132.466C432.566 139.218 425.893 142.623 414.024 148.726C396.14 157.922 367.97 170.636 365.907 171.565C365.819 171.604 365.744 171.64 365.657 171.683L345.435 181.676" stroke="url(#paint1_linear_370_288)" stroke-width="0.400166"/>
<path d="M572.939 35.2147L566.124 44.3821C566.124 44.3821 561.385 50.1695 557.975 53.7549C553.825 58.1189 551.212 60.468 546.517 64.6093C539.792 70.5427 528.196 79.2426 528.196 79.2426C528.196 79.2426 507.253 93.8487 492.652 102.215C484.091 107.119 479.097 109.696 470.154 114.209C457.189 120.752 449.633 124.101 436.17 130.014C423.788 135.452 416.696 138.289 404.077 143.364C384.867 151.09 354.697 162.198 353.077 162.794C353.024 162.813 352.983 162.829 352.931 162.849L331.417 171.271" stroke="url(#paint2_linear_370_288)" stroke-width="0.400166"/>
<path d="M568.933 52.822L560.349 63.8567C560.349 63.8567 554.524 70.6483 550.476 74.6662C545.549 79.5566 542.546 82.0375 537.17 86.3765C529.468 92.593 516.566 101.014 516.566 101.014C516.566 101.014 493.539 114.563 477.935 121.282C468.786 125.221 463.519 127.091 454.112 130.29C440.476 134.927 432.643 136.932 418.7 140.424C405.877 143.635 398.602 145.058 385.648 147.63C366.106 151.511 335.764 156.073 333.617 156.395C333.529 156.408 333.452 156.421 333.365 156.437L311.39 160.467" stroke="url(#paint3_linear_370_288)" stroke-width="0.400166"/>
<defs>
<linearGradient id="paint0_linear_370_288" x1="518.266" y1="143.26" x2="568.463" y2="52.7828" gradientUnits="userSpaceOnUse">
<stop stop-color="#DBE9FF"/>
<stop offset="1" stop-color="white"/>
</linearGradient>
<linearGradient id="paint1_linear_370_288" x1="565.329" y1="9.00372" x2="368.82" y2="178.052" gradientUnits="userSpaceOnUse">
<stop stop-color="#ADADAD"/>
<stop offset="1" stop-color="#C8D9F3"/>
</linearGradient>
<linearGradient id="paint2_linear_370_288" x1="567.131" y1="44.0183" x2="328.901" y2="163.443" gradientUnits="userSpaceOnUse">
<stop stop-color="#9AA4FF"/>
<stop offset="1" stop-color="#DBE9FF"/>
</linearGradient>
<linearGradient id="paint3_linear_370_288" x1="576.143" y1="38.616" x2="316.683" y2="160.65" gradientUnits="userSpaceOnUse">
<stop stop-color="#ADADAD"/>
<stop offset="1" stop-color="#DBE9FF"/>
</linearGradient>
</defs>
</svg>
