<svg width="24" height="24" viewBox="0 0 24 24" fill="none" xmlns="http://www.w3.org/2000/svg">
<g id="devicon:google" clip-path="url(#clip0_161_748)">
<path id="Vector" d="M8.36055 0.78931C5.96258 1.62119 3.89457 3.20012 2.46029 5.29419C1.026 7.38826 0.301037 9.88708 0.391883 12.4236C0.482728 14.9602 1.38459 17.4007 2.96501 19.3868C4.54543 21.3729 6.72109 22.7999 9.17243 23.4581C11.1598 23.9709 13.2419 23.9934 15.2399 23.5237C17.0499 23.1171 18.7233 22.2475 20.0962 20.9999C21.5251 19.6618 22.5622 17.9596 23.0962 16.0762C23.6763 14.028 23.7796 11.8742 23.3981 9.77994H12.2381V14.4093H18.7012C18.572 15.1477 18.2952 15.8524 17.8873 16.4812C17.4795 17.1101 16.9489 17.6503 16.3274 18.0693C15.5383 18.5916 14.6486 18.9428 13.7156 19.1006C12.7798 19.2746 11.82 19.2746 10.8843 19.1006C9.93584 18.9047 9.03863 18.5132 8.24993 17.9512C6.98271 17.0542 6.0312 15.7798 5.53118 14.3099C5.02285 12.8125 5.02285 11.1892 5.53118 9.69181C5.8871 8.64222 6.47549 7.68656 7.25243 6.89618C8.14154 5.97509 9.26718 5.31668 10.5058 4.9932C11.7445 4.66973 13.0484 4.69368 14.2743 5.06244C15.2321 5.35629 16.1078 5.86996 16.8318 6.56244C17.5606 5.83744 18.2881 5.11056 19.0143 4.38181C19.3893 3.98994 19.7981 3.61681 20.1674 3.21556C19.0622 2.18716 17.7649 1.38688 16.3499 0.86056C13.7731 -0.0750836 10.9536 -0.100228 8.36055 0.78931Z" fill="white"/>
<path id="Vector_2" d="M8.36058 0.789367C10.9535 -0.100776 13.7729 -0.0762934 16.35 0.858742C17.7652 1.38864 19.0619 2.19277 20.1656 3.22499C19.7906 3.62624 19.395 4.00124 19.0125 4.39124C18.285 5.11749 17.5581 5.84124 16.8318 6.56249C16.1079 5.87001 15.2321 5.35635 14.2743 5.06249C13.0488 4.69244 11.745 4.66711 10.506 4.98926C9.26699 5.31141 8.14067 5.96861 7.25058 6.88874C6.47364 7.67912 5.88525 8.63477 5.52933 9.68437L1.64246 6.67499C3.03372 3.91604 5.44261 1.80566 8.36058 0.789367Z" fill="#E33629"/>
<path id="Vector_3" d="M0.611279 9.6563C0.820041 8.62087 1.16689 7.61816 1.64253 6.67505L5.5294 9.69192C5.02107 11.1893 5.02107 12.8126 5.5294 14.31C4.2344 15.3101 2.93878 16.3151 1.64253 17.3251C0.452186 14.9556 0.0891526 12.256 0.611279 9.6563Z" fill="#F8BD00"/>
<path id="Vector_4" d="M12.2381 9.77808H23.3981C23.7797 11.8723 23.6764 14.0262 23.0963 16.0743C22.5623 17.9577 21.5252 19.66 20.0963 20.9981C18.8419 20.0193 17.5819 19.0481 16.3275 18.0693C16.9494 17.6498 17.4802 17.1091 17.8881 16.4796C18.296 15.85 18.5726 15.1446 18.7013 14.4056H12.2381C12.2363 12.8643 12.2381 11.3212 12.2381 9.77808Z" fill="#587DBD"/>
<path id="Vector_5" d="M1.64062 17.3249C2.93687 16.3249 4.2325 15.3199 5.5275 14.3099C6.02851 15.7803 6.98138 17.0547 8.25 17.9512C9.04116 18.5106 9.9403 18.8989 10.89 19.0912C11.8257 19.2652 12.7855 19.2652 13.7213 19.0912C14.6543 18.9335 15.544 18.5822 16.3331 18.0599C17.5875 19.0387 18.8475 20.0099 20.1019 20.9887C18.7292 22.2369 17.0558 23.1072 15.2456 23.5143C13.2476 23.984 11.1655 23.9615 9.17813 23.4487C7.60632 23.029 6.13814 22.2892 4.86563 21.2756C3.51886 20.2061 2.41882 18.8585 1.64062 17.3249Z" fill="#319F43"/>
</g>
<defs>
<clipPath id="clip0_161_748">
<rect width="24" height="24" fill="white"/>
</clipPath>
</defs>
</svg>
