<svg width="741" height="496" viewBox="0 0 741 496" fill="none" xmlns="http://www.w3.org/2000/svg">
<mask id="mask0_365_189" style="mask-type:alpha" maskUnits="userSpaceOnUse" x="0" y="0" width="741" height="496">
<rect x="741" y="496" width="741" height="496" transform="rotate(180 741 496)" fill="#D9D9D9"/>
</mask>
<g mask="url(#mask0_365_189)">
<path d="M915.22 -341.916C857.156 -214.6 745.429 -166.463 688.102 -168.635C630.774 -170.807 534.451 -108.008 508.432 -31.5554C482.414 44.8974 390.365 100.033 336.76 99.4227C283.156 98.8129 192.54 159.144 183.215 216.571C173.89 273.998 85.2416 339.117 27.5376 335.346C-30.1664 331.575 -112.417 391.813 -132.938 457.782C-153.46 523.751 -215.975 564.53 -273.688 565.168C-331.402 565.806 -391.075 593.725 -417.637 674.994C-444.198 756.263 -523.569 786.004 -569.582 790.922C-615.596 795.84 -680.69 798.965 -735.923 917.832" stroke="#ECECEC"/>
<path d="M782.22 -467.916C724.156 -340.6 612.429 -292.463 555.102 -294.635C497.774 -296.807 401.451 -234.008 375.432 -157.555C349.414 -81.1026 257.365 -25.9675 203.76 -26.5773C150.156 -27.1871 59.5404 33.1435 50.2153 90.5708C40.8902 147.998 -47.7584 213.117 -105.462 209.346C-163.166 205.575 -245.417 265.813 -265.938 331.782C-286.46 397.751 -348.975 438.53 -406.688 439.168C-464.402 439.806 -524.075 467.725 -550.637 548.994C-577.198 630.263 -656.569 660.004 -702.582 664.922C-748.596 669.84 -813.69 672.965 -868.923 791.832" stroke="#ECECEC"/>
<path d="M741.22 -515.916C683.156 -388.6 571.429 -340.463 514.102 -342.635C456.774 -344.807 360.451 -282.008 334.432 -205.555C308.414 -129.103 216.365 -73.9675 162.76 -74.5773C109.156 -75.1871 18.5404 -14.8565 9.2153 42.5708C-0.109842 99.9981 -88.7584 165.117 -146.462 161.346C-204.166 157.575 -286.417 217.813 -306.938 283.782C-327.46 349.751 -389.975 390.53 -447.688 391.168C-505.402 391.806 -565.075 419.725 -591.637 500.994C-618.198 582.263 -697.569 612.004 -743.582 616.922C-789.596 621.84 -854.69 624.965 -909.923 743.832" stroke="#ECECEC"/>
<path d="M960.22 -301.916C902.156 -174.6 790.429 -126.463 733.102 -128.635C675.774 -130.807 579.451 -68.0081 553.432 8.44464C527.414 84.8974 435.365 140.033 381.76 139.423C328.156 138.813 237.54 199.144 228.215 256.571C218.89 313.998 130.242 379.117 72.5376 375.346C14.8336 371.575 -67.4173 431.813 -87.9384 497.782C-108.46 563.751 -170.975 604.53 -228.688 605.168C-286.402 605.806 -346.075 633.725 -372.637 714.994C-399.198 796.263 -478.569 826.004 -524.582 830.922C-570.596 835.84 -635.69 838.965 -690.923 957.832" stroke="#ECECEC"/>
<path d="M827.22 -427.916C769.156 -300.6 657.429 -252.463 600.102 -254.635C542.774 -256.807 446.451 -194.008 420.432 -117.555C394.414 -41.1026 302.365 14.0325 248.76 13.4227C195.156 12.8129 104.54 73.1435 95.2153 130.571C85.8902 187.998 -2.75839 253.117 -60.4624 249.346C-118.166 245.575 -200.417 305.813 -220.938 371.782C-241.46 437.751 -303.975 478.53 -361.688 479.168C-419.402 479.806 -479.075 507.725 -505.637 588.994C-532.198 670.263 -611.569 700.004 -657.582 704.922C-703.596 709.84 -768.69 712.965 -823.923 831.832" stroke="#ECECEC"/>
<path d="M1004.22 -251.916C946.156 -124.6 834.429 -76.4628 777.102 -78.6349C719.774 -80.807 623.451 -18.0081 597.432 58.4446C571.414 134.897 479.365 190.033 425.76 189.423C372.156 188.813 281.54 249.144 272.215 306.571C262.89 363.998 174.242 429.117 116.538 425.346C58.8336 421.575 -23.4173 481.813 -43.9384 547.782C-64.4596 613.751 -126.975 654.53 -184.688 655.168C-242.402 655.806 -302.075 683.725 -328.637 764.994C-355.198 846.263 -434.569 876.004 -480.582 880.922C-526.596 885.84 -591.69 888.965 -646.923 1007.83" stroke="#ECECEC"/>
<path d="M871.22 -377.916C813.156 -250.6 701.429 -202.463 644.102 -204.635C586.774 -206.807 490.451 -144.008 464.432 -67.5554C438.414 8.89735 346.365 64.0325 292.76 63.4227C239.156 62.8129 148.54 123.144 139.215 180.571C129.89 237.998 41.2416 303.117 -16.4624 299.346C-74.1664 295.575 -156.417 355.813 -176.938 421.782C-197.46 487.751 -259.975 528.53 -317.688 529.168C-375.402 529.806 -435.075 557.725 -461.637 638.994C-488.198 720.263 -567.569 750.004 -613.582 754.922C-659.596 759.84 -724.69 762.965 -779.923 881.832" stroke="#ECECEC"/>
</g>
</svg>
