<svg width="375" height="559" viewBox="0 0 375 559" fill="none" xmlns="http://www.w3.org/2000/svg">
<mask id="mask0_360_2828" style="mask-type:alpha" maskUnits="userSpaceOnUse" x="0" y="0" width="375" height="559">
<rect width="375" height="559" fill="#D9D9D9"/>
</mask>
<g mask="url(#mask0_360_2828)">
<path d="M-169.001 556.294C-129.316 469.277 -52.9543 436.377 -13.7729 437.861C25.4084 439.346 91.2423 396.425 109.025 344.172C126.808 291.919 189.72 254.236 226.357 254.653C262.995 255.069 324.927 213.835 331.301 174.586C337.674 135.336 398.262 90.829 437.701 93.4067C477.14 95.9843 533.356 54.8135 547.381 9.72558C561.407 -35.3623 604.134 -63.2329 643.579 -63.6691C683.025 -64.1053 723.81 -83.187 741.963 -138.732C760.117 -194.277 814.365 -214.603 845.813 -217.965C877.262 -221.326 921.752 -223.462 959.502 -304.704" stroke="url(#paint0_linear_360_2828)"/>
<path d="M-183.747 541.3C-144.062 454.283 -67.7004 421.383 -28.519 422.867C10.6623 424.352 76.4962 381.431 94.279 329.178C112.062 276.925 174.974 239.242 211.611 239.659C248.248 240.075 310.181 198.841 316.554 159.592C322.928 120.342 383.516 75.8351 422.955 78.4128C462.394 80.9904 518.61 39.8196 532.635 -5.26832C546.661 -50.3562 589.388 -78.2268 628.833 -78.663C668.279 -79.0992 709.064 -98.1809 727.217 -153.726C745.371 -209.271 799.619 -229.597 831.067 -232.959C862.516 -236.32 907.006 -238.456 944.756 -319.698" stroke="url(#paint1_linear_360_2828)"/>
<path d="M-197.747 523.3C-158.062 436.283 -81.7004 403.383 -42.519 404.867C-3.33768 406.352 62.4962 363.431 80.279 311.178C98.0619 258.925 160.974 221.242 197.611 221.659C234.248 222.075 296.181 180.841 302.554 141.592C308.928 102.342 369.516 57.8351 408.955 60.4128C448.394 62.9904 504.61 21.8196 518.635 -23.2683C532.661 -68.3562 575.388 -96.2268 614.833 -96.663C654.279 -97.0992 695.064 -116.181 713.217 -171.726C731.371 -227.271 785.619 -247.597 817.067 -250.959C848.516 -254.32 893.006 -256.456 930.756 -337.698" stroke="url(#paint2_linear_360_2828)"/>
<path d="M-222.747 506.3C-183.062 419.283 -106.7 386.383 -67.519 387.867C-28.3377 389.352 37.4962 346.431 55.279 294.178C73.0619 241.925 135.974 204.242 172.611 204.659C209.248 205.075 271.181 163.841 277.554 124.592C283.928 85.3421 344.516 40.8351 383.955 43.4128C423.394 45.9904 479.61 4.8196 493.635 -40.2683C507.661 -85.3562 550.388 -113.227 589.833 -113.663C629.279 -114.099 670.064 -133.181 688.217 -188.726C706.371 -244.271 760.619 -264.597 792.067 -267.959C823.516 -271.32 868.006 -273.456 905.756 -354.698" stroke="url(#paint3_linear_360_2828)"/>
<path d="M-153.747 573.3C-114.062 486.283 -37.7004 453.383 1.48097 454.867C40.6623 456.352 106.496 413.431 124.279 361.178C142.062 308.925 204.974 271.242 241.611 271.659C278.248 272.075 340.181 230.841 346.554 191.592C352.928 152.342 413.516 107.835 452.955 110.413C492.394 112.99 548.61 71.8196 562.635 26.7317C576.661 -18.3562 619.388 -46.2268 658.833 -46.663C698.279 -47.0992 739.064 -66.1809 757.217 -121.726C775.371 -177.271 829.619 -197.597 861.067 -200.959C892.516 -204.32 937.006 -206.456 974.756 -287.698" stroke="url(#paint4_linear_360_2828)"/>
<path d="M-135.747 593.3C-96.0622 506.283 -19.7004 473.383 19.481 474.867C58.6623 476.352 124.496 433.431 142.279 381.178C160.062 328.925 222.974 291.242 259.611 291.659C296.248 292.075 358.181 250.841 364.554 211.592C370.928 172.342 431.516 127.835 470.955 130.413C510.394 132.99 566.61 91.8196 580.635 46.7317C594.661 1.64377 637.388 -26.2268 676.833 -26.663C716.279 -27.0992 757.064 -46.1809 775.217 -101.726C793.371 -157.271 847.619 -177.597 879.067 -180.959C910.516 -184.32 955.006 -186.456 992.756 -267.698" stroke="url(#paint5_linear_360_2828)"/>
</g>
<defs>
<linearGradient id="paint0_linear_360_2828" x1="380" y1="91.9999" x2="-10.0001" y2="492" gradientUnits="userSpaceOnUse">
<stop stop-color="white" stop-opacity="0"/>
<stop offset="0.561776" stop-color="white"/>
<stop offset="0.565089" stop-color="#E2E2E2"/>
<stop offset="0.734375" stop-color="#CACACA" stop-opacity="0"/>
<stop offset="0.862161" stop-color="#E2E2E2"/>
</linearGradient>
<linearGradient id="paint1_linear_360_2828" x1="365.254" y1="77.006" x2="-24.7462" y2="477.006" gradientUnits="userSpaceOnUse">
<stop stop-color="white" stop-opacity="0"/>
<stop offset="0.606383" stop-color="white"/>
<stop offset="0.621492" stop-color="#E2E2E2"/>
<stop offset="0.734375" stop-color="#CACACA" stop-opacity="0"/>
<stop offset="0.862161" stop-color="#E2E2E2"/>
</linearGradient>
<linearGradient id="paint2_linear_360_2828" x1="351.254" y1="59.006" x2="-38.7462" y2="459.006" gradientUnits="userSpaceOnUse">
<stop stop-color="white" stop-opacity="0"/>
<stop offset="0.63642" stop-color="white"/>
<stop offset="0.640922" stop-color="#E2E2E2"/>
<stop offset="0.734375" stop-color="#CACACA" stop-opacity="0"/>
<stop offset="0.862161" stop-color="#E2E2E2"/>
</linearGradient>
<linearGradient id="paint3_linear_360_2828" x1="326.254" y1="42.006" x2="-63.7462" y2="442.006" gradientUnits="userSpaceOnUse">
<stop stop-color="white" stop-opacity="0"/>
<stop offset="0.652961" stop-color="white"/>
<stop offset="0.678911" stop-color="#E2E2E2"/>
<stop offset="0.734375" stop-color="#CACACA" stop-opacity="0"/>
<stop offset="0.862161" stop-color="#E2E2E2"/>
</linearGradient>
<linearGradient id="paint4_linear_360_2828" x1="395.254" y1="109.006" x2="5.25376" y2="509.006" gradientUnits="userSpaceOnUse">
<stop stop-color="white" stop-opacity="0"/>
<stop offset="0.519197" stop-color="white"/>
<stop offset="0.522075" stop-color="#E2E2E2"/>
<stop offset="0.734375" stop-color="#CACACA" stop-opacity="0"/>
<stop offset="0.862161" stop-color="#E2E2E2"/>
</linearGradient>
<linearGradient id="paint5_linear_360_2828" x1="413.254" y1="129.006" x2="23.2538" y2="529.006" gradientUnits="userSpaceOnUse">
<stop stop-color="white" stop-opacity="0"/>
<stop offset="0.445268" stop-color="white"/>
<stop offset="0.445757" stop-color="#E2E2E2"/>
<stop offset="0.734375" stop-color="#CACACA" stop-opacity="0"/>
<stop offset="0.862161" stop-color="#E2E2E2"/>
</linearGradient>
</defs>
</svg>
