<svg width="741" height="496" viewBox="0 0 741 496" fill="none" xmlns="http://www.w3.org/2000/svg">
<mask id="mask0_161_848" style="mask-type:alpha" maskUnits="userSpaceOnUse" x="0" y="0" width="741" height="496">
<rect width="741" height="496" transform="matrix(-1 0 0 1 741 0)" fill="#D9D9D9"/>
</mask>
<g mask="url(#mask0_161_848)">
<path d="M915.22 837.916C857.156 710.6 745.429 662.463 688.102 664.635C630.774 666.807 534.451 604.008 508.432 527.555C482.414 451.103 390.365 395.967 336.76 396.577C283.156 397.187 192.541 336.856 183.215 279.429C173.89 222.002 85.2417 156.883 27.5377 160.654C-30.1664 164.425 -112.417 104.187 -132.938 38.218C-153.459 -27.7513 -215.974 -68.5295 -273.688 -69.1678C-331.402 -69.806 -391.075 -97.725 -417.637 -178.994C-444.198 -260.263 -523.569 -290.004 -569.582 -294.922C-615.595 -299.84 -680.69 -302.965 -735.923 -421.832" stroke="white"/>
<path d="M782.22 963.916C724.156 836.6 612.429 788.463 555.102 790.635C497.774 792.807 401.451 730.008 375.432 653.555C349.414 577.103 257.365 521.967 203.76 522.577C150.156 523.187 59.5405 462.857 50.2154 405.429C40.8902 348.002 -47.7583 282.883 -105.462 286.654C-163.166 290.426 -245.417 230.187 -265.938 164.218C-286.459 98.2487 -348.974 57.4705 -406.688 56.8323C-464.402 56.1941 -524.075 28.2751 -550.637 -52.994C-577.198 -134.263 -656.569 -164.003 -702.582 -168.922C-748.595 -173.84 -813.69 -176.965 -868.923 -295.832" stroke="white"/>
<path d="M741.22 1011.92C683.156 884.6 571.429 836.463 514.102 838.635C456.774 840.807 360.451 778.008 334.432 701.555C308.414 625.103 216.365 569.967 162.76 570.577C109.156 571.187 18.5405 510.857 9.21536 453.429C-0.109785 396.002 -88.7583 330.883 -146.462 334.654C-204.166 338.426 -286.417 278.187 -306.938 212.218C-327.459 146.249 -389.974 105.471 -447.688 104.832C-505.402 104.194 -565.075 76.2751 -591.637 -4.99404C-618.198 -86.2632 -697.569 -116.003 -743.582 -120.922C-789.595 -125.84 -854.69 -128.965 -909.923 -247.832" stroke="white"/>
<path d="M960.22 797.916C902.156 670.6 790.429 622.463 733.102 624.635C675.774 626.807 579.451 564.008 553.432 487.555C527.414 411.103 435.365 355.967 381.76 356.577C328.156 357.187 237.541 296.856 228.215 239.429C218.89 182.002 130.242 116.883 72.5377 120.654C14.8336 124.425 -67.4172 64.1873 -87.9383 -1.78202C-108.459 -67.7513 -170.974 -108.53 -228.688 -109.168C-286.402 -109.806 -346.075 -137.725 -372.637 -218.994C-399.198 -300.263 -478.569 -330.004 -524.582 -334.922C-570.595 -339.84 -635.69 -342.965 -690.923 -461.832" stroke="white"/>
<path d="M827.22 923.916C769.156 796.6 657.429 748.463 600.102 750.635C542.774 752.807 446.451 690.008 420.432 613.555C394.414 537.103 302.365 481.967 248.76 482.577C195.156 483.187 104.541 422.856 95.2154 365.429C85.8902 308.002 -2.75833 242.883 -60.4623 246.654C-118.166 250.425 -200.417 190.187 -220.938 124.218C-241.459 58.2487 -303.974 17.4705 -361.688 16.8322C-419.402 16.194 -479.075 -11.725 -505.637 -92.9941C-532.198 -174.263 -611.569 -204.004 -657.582 -208.922C-703.595 -213.84 -768.69 -216.965 -823.923 -335.832" stroke="white"/>
<path d="M1004.22 747.916C946.156 620.6 834.429 572.463 777.102 574.635C719.774 576.807 623.451 514.008 597.432 437.555C571.414 361.103 479.365 305.967 425.76 306.577C372.156 307.187 281.541 246.856 272.215 189.429C262.89 132.002 174.242 66.8826 116.538 70.654C58.8336 74.4254 -23.4172 14.1873 -43.9383 -51.782C-64.4595 -117.751 -126.974 -158.53 -184.688 -159.168C-242.402 -159.806 -302.075 -187.725 -328.637 -268.994C-355.198 -350.263 -434.569 -380.004 -480.582 -384.922C-526.595 -389.84 -591.69 -392.965 -646.923 -511.832" stroke="white"/>
<path d="M871.22 873.916C813.156 746.6 701.429 698.463 644.102 700.635C586.774 702.807 490.451 640.008 464.432 563.555C438.414 487.103 346.365 431.967 292.76 432.577C239.156 433.187 148.541 372.856 139.215 315.429C129.89 258.002 41.2417 192.883 -16.4623 196.654C-74.1664 200.425 -156.417 140.187 -176.938 74.218C-197.459 8.24865 -259.974 -32.5295 -317.688 -33.1678C-375.402 -33.806 -435.075 -61.725 -461.637 -142.994C-488.198 -224.263 -567.569 -254.004 -613.582 -258.922C-659.595 -263.84 -724.69 -266.965 -779.923 -385.832" stroke="white"/>
</g>
</svg>
