<svg width="727" height="421" viewBox="0 0 727 421" fill="none" xmlns="http://www.w3.org/2000/svg">
<mask id="mask0_370_397" style="mask-type:alpha" maskUnits="userSpaceOnUse" x="0" y="0" width="727" height="421">
<rect width="727" height="421" transform="matrix(-1 0 0 1 727 0)" fill="#D9D9D9"/>
</mask>
<g mask="url(#mask0_370_397)">
<path d="M861.853 334.525C820.26 259.797 740.227 231.543 699.162 232.818C658.097 234.093 589.098 197.234 570.46 152.36C551.822 107.486 485.886 75.1246 447.487 75.4826C409.088 75.8405 344.178 40.4296 337.498 6.72279C330.819 -26.984 267.317 -65.2056 225.982 -62.992C184.647 -60.7784 125.729 -96.135 111.029 -134.856C96.3293 -173.576 51.5481 -197.511 10.2063 -197.885C-31.1355 -198.26 -73.8813 -214.647 -92.9079 -262.348C-111.934 -310.048 -168.79 -327.504 -201.751 -330.391C-234.711 -333.278 -281.34 -335.112 -320.905 -404.881" stroke="url(#paint0_linear_370_397)"/>
<path d="M766.581 408.481C724.988 333.753 644.955 305.499 603.89 306.774C562.825 308.049 493.826 271.189 475.188 226.315C456.55 181.442 390.614 149.08 352.215 149.438C313.816 149.796 248.906 114.385 242.226 80.6784C235.547 46.9715 172.045 8.74994 130.71 10.9636C89.3754 13.1772 30.457 -22.1794 15.7571 -60.8999C1.05728 -99.6205 -43.7239 -123.555 -85.0657 -123.93C-126.407 -124.304 -169.153 -140.691 -188.18 -188.392C-207.206 -236.093 -264.062 -253.549 -297.023 -256.436C-329.983 -259.322 -376.612 -261.157 -416.177 -330.925" stroke="url(#paint1_linear_370_397)"/>
<path d="M737.212 436.654C695.619 361.926 615.586 333.672 574.521 334.947C533.456 336.222 464.457 299.362 445.819 254.489C427.181 209.615 361.244 177.254 322.846 177.611C284.447 177.969 219.537 142.558 212.857 108.852C206.177 75.1449 142.676 36.9233 101.341 39.1369C60.0063 41.3505 1.08782 5.99393 -13.612 -32.7266C-28.3119 -71.4471 -73.093 -95.3818 -114.435 -95.7564C-155.777 -96.131 -198.522 -112.518 -217.549 -160.219C-236.576 -207.919 -293.431 -225.375 -326.392 -228.262C-359.352 -231.149 -405.981 -232.983 -445.546 -302.752" stroke="url(#paint2_linear_370_397)"/>
<path d="M894.088 311.047C852.494 236.319 772.461 208.065 731.396 209.34C690.331 210.615 621.332 173.756 602.695 128.882C584.057 84.0081 518.12 51.6466 479.721 52.0045C441.323 52.3625 376.413 16.9516 369.733 -16.7552C363.053 -50.462 299.552 -88.6837 258.217 -86.47C216.882 -84.2564 157.963 -119.613 143.263 -158.334C128.564 -197.054 83.7825 -220.989 42.4407 -221.363C1.0989 -221.738 -41.647 -238.125 -60.6735 -285.826C-79.7001 -333.526 -136.556 -350.982 -169.516 -353.869C-202.477 -356.756 -249.106 -358.59 -288.67 -428.359" stroke="url(#paint3_linear_370_397)"/>
<path d="M798.816 385.003C757.223 310.275 677.19 282.021 636.125 283.296C595.06 284.571 526.061 247.711 507.423 202.837C488.785 157.964 422.848 125.602 384.45 125.96C346.051 126.318 281.141 90.9071 274.461 57.2003C267.781 23.4935 204.28 -14.7281 162.945 -12.5145C121.61 -10.3008 62.6918 -45.6574 47.992 -84.378C33.2921 -123.099 -11.489 -147.033 -52.8308 -147.408C-94.1726 -147.782 -136.918 -164.169 -155.945 -211.87C-174.972 -259.571 -231.827 -277.027 -264.788 -279.914C-297.748 -282.8 -344.377 -284.635 -383.942 -354.403" stroke="url(#paint4_linear_370_397)"/>
<path d="M925.606 281.7C884.013 206.972 803.98 178.718 762.915 179.993C721.85 181.268 652.851 144.408 634.213 99.5346C615.575 54.6609 549.638 22.2994 511.24 22.6574C472.841 23.0153 407.931 -12.3956 401.251 -46.1024C394.572 -79.8092 331.07 -118.031 289.735 -115.817C248.4 -113.604 189.482 -148.96 174.782 -187.681C160.082 -226.401 115.301 -250.336 73.9592 -250.711C32.6175 -251.085 -10.1284 -267.472 -29.155 -315.173C-48.1815 -362.874 -105.037 -380.33 -137.998 -383.216C-170.958 -386.103 -217.587 -387.937 -257.152 -457.706" stroke="url(#paint5_linear_370_397)"/>
<path d="M830.335 355.656C788.742 280.928 708.708 252.674 667.643 253.949C626.578 255.224 557.579 218.364 538.942 173.49C520.304 128.616 454.367 96.255 415.968 96.6129C377.57 96.9709 312.66 61.56 305.98 27.8532C299.3 -5.85365 235.799 -44.0753 194.464 -41.8616C153.129 -39.648 94.2104 -75.0046 79.5105 -113.725C64.8107 -152.446 20.0295 -176.38 -21.3122 -176.755C-62.654 -177.13 -105.4 -193.517 -124.426 -241.217C-143.453 -288.918 -200.309 -306.374 -233.269 -309.261C-266.23 -312.148 -312.859 -313.982 -352.423 -383.751" stroke="url(#paint6_linear_370_397)"/>
</g>
<defs>
<linearGradient id="paint0_linear_370_397" x1="287.508" y1="-53.4715" x2="263.46" y2="-15.0036" gradientUnits="userSpaceOnUse">
<stop stop-color="#E2E2E2"/>
<stop offset="1" stop-color="#666666" stop-opacity="0"/>
</linearGradient>
<linearGradient id="paint1_linear_370_397" x1="192.236" y1="20.4841" x2="168.188" y2="58.952" gradientUnits="userSpaceOnUse">
<stop stop-color="#E2E2E2"/>
<stop offset="1" stop-color="#666666" stop-opacity="0"/>
</linearGradient>
<linearGradient id="paint2_linear_370_397" x1="162.867" y1="48.6574" x2="138.819" y2="87.1253" gradientUnits="userSpaceOnUse">
<stop stop-color="#E2E2E2"/>
<stop offset="1" stop-color="#666666" stop-opacity="0"/>
</linearGradient>
<linearGradient id="paint3_linear_370_397" x1="319.743" y1="-76.9495" x2="295.694" y2="-38.4816" gradientUnits="userSpaceOnUse">
<stop stop-color="#E2E2E2"/>
<stop offset="1" stop-color="#666666" stop-opacity="0"/>
</linearGradient>
<linearGradient id="paint4_linear_370_397" x1="224.471" y1="-2.99397" x2="200.423" y2="35.4739" gradientUnits="userSpaceOnUse">
<stop stop-color="#E2E2E2"/>
<stop offset="1" stop-color="#666666" stop-opacity="0"/>
</linearGradient>
<linearGradient id="paint5_linear_370_397" x1="351.261" y1="-106.297" x2="327.213" y2="-67.8288" gradientUnits="userSpaceOnUse">
<stop stop-color="#E2E2E2"/>
<stop offset="1" stop-color="#666666" stop-opacity="0"/>
</linearGradient>
<linearGradient id="paint6_linear_370_397" x1="255.99" y1="-32.3411" x2="231.941" y2="6.12678" gradientUnits="userSpaceOnUse">
<stop stop-color="#E2E2E2"/>
<stop offset="1" stop-color="#666666" stop-opacity="0"/>
</linearGradient>
</defs>
</svg>
