<svg width="375" height="225" viewBox="0 0 375 225" fill="none" xmlns="http://www.w3.org/2000/svg">
<mask id="mask0_360_2936" style="mask-type:alpha" maskUnits="userSpaceOnUse" x="0" y="0" width="375" height="225">
<rect width="375" height="225" fill="#D9D9D9"/>
</mask>
<g mask="url(#mask0_360_2936)">
<path d="M-199.074 201.546C-159.389 126.818 -83.0271 98.5637 -43.8457 99.8386C-4.66436 101.114 61.1695 64.2538 78.9523 19.3801C96.7352 -25.4936 159.647 -57.8551 196.285 -57.4972C232.922 -57.1392 294.854 -92.5501 301.228 -126.257C307.601 -159.964 368.19 -198.185 407.628 -195.972C447.067 -193.758 503.283 -229.115 517.309 -267.835C531.334 -306.556 574.061 -330.49 613.506 -330.865C652.952 -331.24 693.737 -347.627 711.891 -395.327C730.044 -443.028 784.292 -460.484 815.741 -463.371C847.189 -466.258 891.679 -468.092 929.429 -537.861" stroke="url(#paint0_linear_360_2936)"/>
<path d="M-108.173 275.501C-68.4875 200.773 7.87431 172.519 47.0557 173.794C86.237 175.069 152.071 138.209 169.854 93.3357C187.637 48.4619 250.549 16.1005 287.186 16.4584C323.823 16.8163 385.756 -18.5946 392.129 -52.3014C398.503 -86.0082 459.091 -124.23 498.53 -122.016C537.969 -119.803 594.184 -155.159 608.21 -193.88C622.235 -232.6 664.962 -256.535 704.408 -256.909C743.853 -257.284 784.638 -273.671 802.792 -321.372C820.946 -369.072 875.193 -386.528 906.642 -389.415C938.09 -392.302 982.58 -394.136 1020.33 -463.905" stroke="url(#paint1_linear_360_2936)"/>
<path d="M-80.1508 303.675C-40.4655 228.947 35.8963 200.693 75.0776 201.967C114.259 203.242 180.093 166.383 197.876 121.509C215.659 76.6353 278.571 44.2738 315.208 44.6317C351.845 44.9897 413.778 9.57876 420.151 -24.128C426.524 -57.8348 487.113 -96.0565 526.552 -93.8428C565.991 -91.6292 622.206 -126.986 636.232 -165.706C650.257 -204.427 692.984 -228.362 732.43 -228.736C771.875 -229.111 812.66 -245.498 830.814 -293.198C848.968 -340.899 903.215 -358.355 934.664 -361.242C966.112 -364.129 1010.6 -365.963 1048.35 -435.732" stroke="url(#paint2_linear_360_2936)"/>
<path d="M-229.83 178.068C-190.145 103.34 -113.783 75.0856 -74.6016 76.3606C-35.4202 77.6355 30.4136 40.7758 48.1965 -4.09794C65.9793 -48.9717 128.892 -81.3331 165.529 -80.9752C202.166 -80.6173 264.098 -116.028 270.472 -149.735C276.845 -183.442 337.434 -221.663 376.873 -219.45C416.311 -217.236 472.527 -252.593 486.553 -291.313C500.578 -330.034 543.305 -353.968 582.751 -354.343C622.196 -354.718 662.981 -371.105 681.135 -418.805C699.289 -466.506 753.536 -483.962 784.985 -486.849C816.433 -489.736 860.923 -491.57 898.673 -561.339" stroke="url(#paint3_linear_360_2936)"/>
<path d="M-138.929 252.023C-99.2433 177.295 -22.8815 149.041 16.2998 150.316C55.4812 151.591 121.315 114.731 139.098 69.8576C156.881 24.9839 219.793 -7.37756 256.43 -7.01963C293.067 -6.66169 355 -42.0726 361.373 -75.7794C367.747 -109.486 428.335 -147.708 467.774 -145.494C507.213 -143.281 563.429 -178.637 577.454 -217.358C591.48 -256.078 634.207 -280.013 673.652 -280.388C713.097 -280.762 753.882 -297.149 772.036 -344.85C790.19 -392.551 844.438 -410.006 875.886 -412.893C907.335 -415.78 951.825 -417.614 989.574 -487.383" stroke="url(#paint4_linear_360_2936)"/>
<path d="M-259.903 148.721C-220.217 73.9924 -143.856 45.7385 -104.674 47.0134C-65.493 48.2883 0.340875 11.4286 18.1237 -33.4451C35.9066 -78.3188 98.8188 -110.68 135.456 -110.322C172.093 -109.964 234.026 -145.375 240.399 -179.082C246.773 -212.789 307.361 -251.011 346.8 -248.797C386.239 -246.583 442.454 -281.94 456.48 -320.66C470.505 -359.381 513.232 -383.316 552.678 -383.69C592.123 -384.065 632.908 -400.452 651.062 -448.153C669.216 -495.853 723.463 -513.309 754.912 -516.196C786.36 -519.083 830.851 -520.917 868.6 -590.686" stroke="url(#paint5_linear_360_2936)"/>
<path d="M-169.001 222.676C-129.316 147.948 -52.9543 119.694 -13.773 120.969C25.4084 122.244 91.2422 85.3842 109.025 40.5105C126.808 -4.36327 189.72 -36.7247 226.357 -36.3668C262.995 -36.0089 324.927 -71.4198 331.3 -105.127C337.674 -138.833 398.262 -177.055 437.701 -174.841C477.14 -172.628 533.356 -207.984 547.381 -246.705C561.407 -285.425 604.134 -309.36 643.579 -309.735C683.025 -310.109 723.81 -326.496 741.963 -374.197C760.117 -421.898 814.365 -439.354 845.813 -442.241C877.262 -445.127 921.752 -446.962 959.502 -516.73" stroke="url(#paint6_linear_360_2936)"/>
</g>
<defs>
<linearGradient id="paint0_linear_360_2936" x1="348.925" y1="-186.451" x2="373.451" y2="-149.019" gradientUnits="userSpaceOnUse">
<stop stop-color="#E2E2E2"/>
<stop offset="1" stop-color="#666666" stop-opacity="0"/>
</linearGradient>
<linearGradient id="paint1_linear_360_2936" x1="439.826" y1="-112.496" x2="464.352" y2="-75.0635" gradientUnits="userSpaceOnUse">
<stop stop-color="#E2E2E2"/>
<stop offset="1" stop-color="#666666" stop-opacity="0"/>
</linearGradient>
<linearGradient id="paint2_linear_360_2936" x1="467.848" y1="-84.3223" x2="492.374" y2="-46.8901" gradientUnits="userSpaceOnUse">
<stop stop-color="#E2E2E2"/>
<stop offset="1" stop-color="#666666" stop-opacity="0"/>
</linearGradient>
<linearGradient id="paint3_linear_360_2936" x1="318.169" y1="-209.929" x2="342.695" y2="-172.497" gradientUnits="userSpaceOnUse">
<stop stop-color="#E2E2E2"/>
<stop offset="1" stop-color="#666666" stop-opacity="0"/>
</linearGradient>
<linearGradient id="paint4_linear_360_2936" x1="409.07" y1="-135.974" x2="433.596" y2="-98.5415" gradientUnits="userSpaceOnUse">
<stop stop-color="#E2E2E2"/>
<stop offset="1" stop-color="#666666" stop-opacity="0"/>
</linearGradient>
<linearGradient id="paint5_linear_360_2936" x1="288.096" y1="-239.276" x2="312.622" y2="-201.844" gradientUnits="userSpaceOnUse">
<stop stop-color="#E2E2E2"/>
<stop offset="1" stop-color="#666666" stop-opacity="0"/>
</linearGradient>
<linearGradient id="paint6_linear_360_2936" x1="378.998" y1="-165.321" x2="403.524" y2="-127.889" gradientUnits="userSpaceOnUse">
<stop stop-color="#E2E2E2"/>
<stop offset="1" stop-color="#666666" stop-opacity="0"/>
</linearGradient>
</defs>
</svg>
