<svg width="741" height="496" viewBox="0 0 741 496" fill="none" xmlns="http://www.w3.org/2000/svg">
<path d="M-174.22 837.916C-116.156 710.6 -4.42887 662.463 52.8984 664.635C110.226 666.807 206.549 604.008 232.568 527.555C258.586 451.103 350.635 395.967 404.24 396.577C457.844 397.187 548.46 336.856 557.785 279.429C567.11 222.002 655.758 156.883 713.462 160.654C771.166 164.425 853.417 104.187 873.938 38.218C894.46 -27.7514 956.975 -68.5296 1014.69 -69.1678C1072.4 -69.806 1132.08 -97.725 1158.64 -178.994C1185.2 -260.263 1264.57 -290.004 1310.58 -294.922C1356.6 -299.84 1421.69 -302.965 1476.92 -421.832" stroke="white"/>
<path d="M-41.2204 963.916C16.8441 836.6 128.571 788.463 185.898 790.635C243.226 792.807 339.549 730.008 365.568 653.555C391.586 577.103 483.635 521.967 537.24 522.577C590.844 523.187 681.46 462.856 690.785 405.429C700.11 348.002 788.758 282.883 846.462 286.654C904.166 290.425 986.417 230.187 1006.94 164.218C1027.46 98.2486 1089.97 57.4704 1147.69 56.8322C1205.4 56.194 1265.08 28.275 1291.64 -52.9941C1318.2 -134.263 1397.57 -164.004 1443.58 -168.922C1489.6 -173.84 1554.69 -176.965 1609.92 -295.832" stroke="white"/>
<path d="M-0.220432 1011.92C57.8441 884.6 169.571 836.463 226.898 838.635C284.226 840.807 380.549 778.008 406.568 701.555C432.586 625.103 524.635 569.967 578.24 570.577C631.844 571.187 722.46 510.856 731.785 453.429C741.11 396.002 829.758 330.883 887.462 334.654C945.166 338.425 1027.42 278.187 1047.94 212.218C1068.46 146.249 1130.97 105.47 1188.69 104.832C1246.4 104.194 1306.08 76.275 1332.64 -4.99414C1359.2 -86.2633 1438.57 -116.004 1484.58 -120.922C1530.6 -125.84 1595.69 -128.965 1650.92 -247.832" stroke="white"/>
<path d="M-219.22 797.916C-161.156 670.6 -49.4289 622.463 7.89842 624.635C65.2257 626.807 161.549 564.008 187.568 487.555C213.586 411.103 305.635 355.967 359.24 356.577C412.844 357.187 503.46 296.856 512.785 239.429C522.11 182.002 610.758 116.883 668.462 120.654C726.166 124.425 808.417 64.1873 828.938 -1.78203C849.46 -67.7514 911.975 -108.53 969.688 -109.168C1027.4 -109.806 1087.08 -137.725 1113.64 -218.994C1140.2 -300.263 1219.57 -330.004 1265.58 -334.922C1311.6 -339.84 1376.69 -342.965 1431.92 -461.832" stroke="white"/>
<path d="M-86.2204 923.916C-28.1559 796.6 83.5711 748.463 140.898 750.635C198.226 752.807 294.549 690.008 320.568 613.555C346.586 537.103 438.635 481.967 492.24 482.577C545.844 483.187 636.46 422.856 645.785 365.429C655.11 308.002 743.758 242.883 801.462 246.654C859.166 250.425 941.417 190.187 961.938 124.218C982.46 58.2486 1044.97 17.4704 1102.69 16.8322C1160.4 16.194 1220.08 -11.725 1246.64 -92.9941C1273.2 -174.263 1352.57 -204.004 1398.58 -208.922C1444.6 -213.84 1509.69 -216.965 1564.92 -335.832" stroke="white"/>
<path d="M-263.22 747.916C-205.156 620.6 -93.4289 572.463 -36.1016 574.635C21.2257 576.807 117.549 514.008 143.568 437.555C169.586 361.103 261.635 305.967 315.24 306.577C368.844 307.187 459.46 246.856 468.785 189.429C478.11 132.002 566.758 66.8826 624.462 70.654C682.166 74.4254 764.417 14.1873 784.938 -51.782C805.46 -117.751 867.975 -158.53 925.688 -159.168C983.402 -159.806 1043.08 -187.725 1069.64 -268.994C1096.2 -350.263 1175.57 -380.004 1221.58 -384.922C1267.6 -389.84 1332.69 -392.965 1387.92 -511.832" stroke="white"/>
<path d="M-130.22 873.916C-72.1559 746.6 39.5711 698.463 96.8984 700.635C154.226 702.807 250.549 640.008 276.568 563.555C302.586 487.103 394.635 431.967 448.24 432.577C501.844 433.187 592.46 372.856 601.785 315.429C611.11 258.002 699.758 192.883 757.462 196.654C815.166 200.425 897.417 140.187 917.938 74.218C938.46 8.24863 1000.97 -32.5296 1058.69 -33.1678C1116.4 -33.806 1176.08 -61.725 1202.64 -142.994C1229.2 -224.263 1308.57 -254.004 1354.58 -258.922C1400.6 -263.84 1465.69 -266.965 1520.92 -385.832" stroke="white"/>
</svg>
