<svg width="30" height="30" viewBox="0 0 30 30" fill="none" xmlns="http://www.w3.org/2000/svg">
<path id="Vector" d="M15 3.5625C15.5171 3.5625 16.0291 3.66435 16.5068 3.86222C16.9845 4.0601 17.4186 4.35014 17.7842 4.71577C18.1499 5.0814 18.4399 5.51546 18.6378 5.99318C18.8357 6.4709 18.9375 6.98292 18.9375 7.5C18.9375 8.01708 18.8357 8.5291 18.6378 9.00682C18.4399 9.48454 18.1499 9.9186 17.7842 10.2842C17.4186 10.6499 16.9845 10.9399 16.5068 11.1378C16.0291 11.3357 15.5171 11.4375 15 11.4375C13.9557 11.4375 12.9542 11.0227 12.2158 10.2842C11.4773 9.54581 11.0625 8.54429 11.0625 7.5C11.0625 6.45571 11.4773 5.45419 12.2158 4.71577C12.9542 3.97734 13.9557 3.5625 15 3.5625ZM15 20.4375C20.5687 20.4375 26.4375 23.175 26.4375 24.375V26.4375H3.5625V24.375C3.5625 23.175 9.43125 20.4375 15 20.4375ZM15 0C10.8562 0 7.5 3.35625 7.5 7.5C7.5 11.6438 10.8562 15 15 15C19.1438 15 22.5 11.6438 22.5 7.5C22.5 3.35625 19.1438 0 15 0ZM15 16.875C9.99375 16.875 0 19.3875 0 24.375V30H30V24.375C30 19.3875 20.0063 16.875 15 16.875Z" fill="#2D2C2C"/>
</svg>
