<svg width="147" height="114" viewBox="0 0 147 114" fill="none" xmlns="http://www.w3.org/2000/svg">
<path d="M70.2544 23.0044C69.9012 22.6411 69.7246 22.2072 69.7246 21.7026C69.7246 21.188 69.9012 20.749 70.2544 20.3857C70.6076 20.0225 71.0365 19.8408 71.541 19.8408C72.0456 19.8408 72.4744 20.0225 72.8276 20.3857C73.1808 20.749 73.3574 21.188 73.3574 21.7026C73.3574 22.2072 73.1808 22.6411 72.8276 23.0044C72.4744 23.3677 72.0456 23.5493 71.541 23.5493C71.0365 23.5493 70.6076 23.3677 70.2544 23.0044ZM70.0273 43.6055V27.1064L72.9033 25.7441H73.0547V42.2432L70.1787 43.6055H70.0273ZM83.2399 37.248C83.2399 38.4085 83.5527 39.2612 84.1784 39.8062C84.8141 40.341 85.5861 40.6084 86.4943 40.6084C87.4025 40.6084 88.1694 40.341 88.7951 39.8062C89.4308 39.2612 89.7487 38.4085 89.7487 37.248V32.1016C89.7487 30.9411 89.4308 30.0934 88.7951 29.5586C88.1694 29.0137 87.4025 28.7412 86.4943 28.7412C85.5861 28.7412 84.8141 29.0137 84.1784 29.5586C83.5527 30.0934 83.2399 30.9411 83.2399 32.1016V37.248ZM80.2125 37.248V32.1016C80.2125 30.4365 80.8382 28.9884 82.0895 27.7573C83.2601 26.617 84.7283 26.0469 86.4943 26.0469C88.2602 26.0469 89.7285 26.617 90.8991 27.7573C92.1504 28.9784 92.776 30.4264 92.776 32.1016V43.4541C92.776 45.1191 92.1504 46.5672 90.8991 47.7983C89.7285 48.9386 88.2602 49.5088 86.4943 49.5088H81.8322V49.3574L83.0431 46.8145H86.4943C87.4025 46.8145 88.1694 46.542 88.7951 45.9971C89.4308 45.4622 89.7487 44.6146 89.7487 43.4541V42.0161C88.9817 42.8739 87.8969 43.3027 86.4943 43.3027C84.7485 43.3027 83.2802 42.7326 82.0895 41.5923C80.8382 40.3813 80.2125 38.9333 80.2125 37.248ZM99.6311 43.6055V32.1016C99.6311 30.4365 100.257 28.9884 101.508 27.7573C102.679 26.617 104.147 26.0469 105.913 26.0469C107.659 26.0469 109.127 26.617 110.318 27.7573C111.569 28.9683 112.195 30.4163 112.195 32.1016V42.2432L109.319 43.6055H109.167V32.1016C109.167 30.9411 108.849 30.0934 108.214 29.5586C107.588 29.0137 106.821 28.7412 105.913 28.7412C105.005 28.7412 104.233 29.0137 103.597 29.5586C102.971 30.0934 102.658 30.9411 102.658 32.1016V42.2432L99.7825 43.6055H99.6311Z" fill="url(#paint0_linear_161_994)"/>
<path d="M71.2686 85.6055V71.1045H67.3784V70.9531L68.6045 68.3496H71.2686V62.9004L74.1445 61.5381H74.2959V68.3496H78.186V68.501L76.96 71.1045H74.2959V84.2432L71.4199 85.6055H71.2686ZM94.1989 84.2432L91.3229 85.6055H91.1715V84.0161C90.3642 84.8739 89.2794 85.3027 87.9171 85.3027C86.0301 85.3027 84.5618 84.7326 83.5123 83.5923C82.4629 82.452 81.9381 81.1048 81.9381 79.5508C81.9381 77.9362 82.5083 76.5638 83.6486 75.4336C84.7485 74.3438 86.1714 73.7988 87.9171 73.7988C89.1583 73.7988 90.2431 74.2277 91.1715 75.0854C91.1715 73.2993 90.8587 72.1237 90.233 71.5586C89.6276 71.0137 88.8556 70.7412 87.9171 70.7412H84.2389V70.5898L85.4498 68.0469H87.9171C89.6831 68.0469 91.1513 68.617 92.3219 69.7573C93.5732 70.9784 94.1989 72.4264 94.1989 74.1016V84.2432ZM84.9049 79.5508C84.9049 80.4489 85.1774 81.1906 85.7223 81.7759C86.247 82.341 86.9837 82.6235 87.9323 82.6235C88.9212 82.6235 89.6881 82.3359 90.233 81.7607C90.8385 81.1149 91.1412 80.3883 91.1412 79.5811C91.1412 78.6729 90.8284 77.9362 90.2028 77.3711C89.5771 76.806 88.8253 76.5234 87.9474 76.5234C87.0291 76.5234 86.2925 76.8211 85.7374 77.4165C85.1824 78.0119 84.9049 78.7233 84.9049 79.5508ZM100.6 85.6055V74.1016C100.6 72.4365 101.226 70.9884 102.477 69.7573C103.647 68.617 105.116 68.0469 106.882 68.0469C108.486 68.0469 109.874 68.6322 111.044 69.8027C111.266 70.0247 111.468 70.2871 111.65 70.5898C111.831 70.2972 112.033 70.0399 112.255 69.8179C113.517 68.6372 114.904 68.0469 116.418 68.0469C118.164 68.0469 119.632 68.617 120.823 69.7573C122.074 70.9683 122.699 72.4163 122.699 74.1016V84.2432L119.824 85.6055H119.672V74.1016C119.672 72.9411 119.354 72.0934 118.719 71.5586C118.093 71.0137 117.326 70.7412 116.418 70.7412C115.51 70.7412 114.738 71.0137 114.102 71.5586C113.476 72.0934 113.163 72.9411 113.163 74.1016V84.2432L110.287 85.6055H110.136V74.1016C110.136 72.9411 109.818 72.0934 109.182 71.5586C108.557 71.0137 107.79 70.7412 106.882 70.7412C105.973 70.7412 105.201 71.0137 104.566 71.5586C103.94 72.0934 103.627 72.9411 103.627 74.1016V84.2432L100.751 85.6055H100.6ZM139.393 74.1016C139.393 72.9411 139.076 72.0934 138.44 71.5586C137.814 71.0137 137.047 70.7412 136.139 70.7412C135.231 70.7412 134.459 71.0137 133.823 71.5586C133.198 72.0934 132.885 72.9411 132.885 74.1016V79.248C132.885 80.4085 133.198 81.2612 133.823 81.8062C134.459 82.341 135.231 82.6084 136.139 82.6084C137.047 82.6084 137.814 82.341 138.44 81.8062C139.076 81.2612 139.393 80.4085 139.393 79.248V74.1016ZM142.421 74.1016V79.248C142.421 80.9131 141.795 82.3612 140.544 83.5923C139.373 84.7326 137.905 85.3027 136.139 85.3027C134.807 85.3027 133.722 84.8739 132.885 84.0161V90.4492L130.009 91.8115H129.857V74.1016C129.857 72.4365 130.483 70.9884 131.734 69.7573C132.905 68.617 134.373 68.0469 136.139 68.0469C137.885 68.0469 139.353 68.617 140.544 69.7573C141.795 70.9683 142.421 72.4163 142.421 74.1016Z" fill="url(#paint1_linear_161_994)"/>
<path d="M54.2261 69.1055C54.2261 75.4141 52.1541 80.7795 48.0103 85.2017C43.7736 89.6857 38.0526 91.9277 30.8472 91.9277C23.6418 91.9277 17.9207 89.6857 13.6841 85.2017C9.50928 80.7795 7.42188 75.5996 7.42188 69.6621L16.2354 65.4873H16.6992V69.291C16.6992 73.0638 17.8125 76.2336 20.0391 78.8003C22.7913 81.9855 26.394 83.5781 30.8472 83.5781C35.2694 83.5781 38.8721 81.9855 41.6553 78.8003C43.8509 76.2954 44.9487 73.0947 44.9487 69.1982C44.9487 65.5182 44.0519 62.6268 42.2583 60.5239C39.7843 57.617 35.9806 56.1636 30.8472 56.1636C25.2189 56.1636 20.3483 54.3081 16.2354 50.5972C13.1429 47.814 11.5967 43.7783 11.5967 38.4902C11.5967 32.2744 13.514 27.6048 17.3486 24.4814C20.9977 21.5127 25.4972 20.0283 30.8472 20.0283C36.1971 20.0283 40.6966 21.5127 44.3457 24.4814C48.1803 27.6048 50.0977 31.8879 50.0977 37.3306L41.2842 41.5054H40.8203V37.7944C40.8203 34.269 39.8153 31.6405 37.8052 29.9087C35.8569 28.2078 33.5376 27.3574 30.8472 27.3574C27.8475 27.3574 25.4354 28.3006 23.6108 30.187C21.7863 32.0734 20.874 34.6092 20.874 37.7944C20.874 40.856 21.5698 43.1598 22.9614 44.7061C24.8169 46.778 27.4455 47.814 30.8472 47.814C38.3309 47.814 44.0519 49.5767 48.0103 53.1021C52.1541 56.7821 54.2261 62.1165 54.2261 69.1055Z" fill="url(#paint2_linear_161_994)"/>
<defs>
<linearGradient id="paint0_linear_161_994" x1="64.9429" y1="9.53126" x2="154.897" y2="24.4685" gradientUnits="userSpaceOnUse">
<stop stop-color="#000972"/>
<stop offset="0.429396" stop-color="#000EC1"/>
<stop offset="0.741151" stop-color="#0010E1"/>
<stop offset="1" stop-color="#2E3DFA"/>
</linearGradient>
<linearGradient id="paint1_linear_161_994" x1="64.9429" y1="51.5313" x2="154.897" y2="66.4685" gradientUnits="userSpaceOnUse">
<stop stop-color="#000972"/>
<stop offset="0.429396" stop-color="#000EC1"/>
<stop offset="0.741151" stop-color="#0010E1"/>
<stop offset="1" stop-color="#2E3DFA"/>
</linearGradient>
<linearGradient id="paint2_linear_161_994" x1="-1.59429" y1="-10.6875" x2="69.9175" y2="-7.70054" gradientUnits="userSpaceOnUse">
<stop stop-color="#000972"/>
<stop offset="0.429396" stop-color="#000EC1"/>
<stop offset="0.741151" stop-color="#0010E1"/>
<stop offset="1" stop-color="#2E3DFA"/>
</linearGradient>
</defs>
</svg>
